<?xml version="1.0" encoding="UTF-8"?>
<svg id="Layer_2" data-name="Layer 2" xmlns="http://www.w3.org/2000/svg" viewBox="0 0 153.69 12.91">
  <defs>
    <style>
      .cls-1 {
        fill: #fff;
        fill-rule: evenodd;
      }

      .cls-2 {
        fill: none;
      }
    </style>
  </defs>
  <g id="Layer_1-2" data-name="Layer 1">
    <g>
      <path class="cls-2" d="M.04,4.91c51.13-.46,102.29,2.21,153.09,8l.55-4.83C102.69,2.27,51.33-.41,0,.05l.04,4.86Z"/>
      <path class="cls-1" d="M.04,4.03c.25,0,.41,0,.38.05-.25,0-.41,0-.38-.05Z"/>
      <path class="cls-1" d="M.52,4.4c.23-.03-.3-.15.28-.15-.09.04.34.1-.09.1.12.06.2,0,.48,0-.06.08-.24.05-.67.05Z"/>
      <path class="cls-1" d="M.59,1.75c0-.07.01-.13.38-.13-.06.05-.09.12-.38.13Z"/>
      <path class="cls-1" d="M1.08,3.38c.02-.06.49-.09.67-.07-.04.05-.36.11-.67.07Z"/>
      <path class="cls-1" d="M1.08,2.71c.08-.04.5-.06.67-.04-.14.03-.52.06-.67.04Z"/>
      <path class="cls-1" d="M1.08,2.67c.23-.04-.02-.08,0-.13.33-.02.49-.06.86-.07-.1.04-.16.09-.48.1.07.07.52-.03.48.06-.44-.01-.54.03-.86.04Z"/>
      <path class="cls-1" d="M1.18,3.43c.31,0,.55.02.48.09-.09-.04-.47-.03-.48-.09Z"/>
      <path class="cls-1" d="M1.27,3.13c.2.01.29.05.29.1-.08,0-.17.02-.19.03-.32-.03-.08-.08-.1-.13Z"/>
      <path class="cls-1" d="M2.41,1.35c.06-.04.13-.08.38-.08.02.05-.16.07-.38.08Z"/>
      <path class="cls-1" d="M2.62,4.65c-.08-.06.32-.08.48-.05.04.05-.2.05-.48.05Z"/>
      <path class="cls-1" d="M3,4.27c.3,0,.37.02.57.03-.02.05-.61.03-.57-.03Z"/>
      <path class="cls-1" d="M3.67,4.3c1.06-.05,1.01.28.86.4-.41-.04-.47-.13-1.05-.14-.29-.09.4-.19.19-.26Z"/>
      <path class="cls-1" d="M5.28,1.29s.03-.07.29-.07c-.03.07.04.04.29.03-.05.01-.1.03-.1.05-.23,0-.21-.03-.48-.01Z"/>
      <path class="cls-1" d="M11.02,4.83s.17-.03.19-.05c.21,0,.21.04.19.08-.26.01-.19-.03-.38-.03Z"/>
      <path class="cls-1" d="M12.64,4.71s.17.06.29.08c-.08.08-.97-.08-.29-.08Z"/>
      <path class="cls-1" d="M18.84,4.57c.07-.01.1-.04.1-.06.41,0,.29.08-.1.06Z"/>
      <path class="cls-1" d="M28.67,4.73c.44-.09.81.1,0,0h0Z"/>
      <path class="cls-1" d="M39.26,4.91c.12-.05.49-.08.48.01-.29-.02-.18-.02-.48-.01Z"/>
      <path class="cls-1" d="M39.92,5c0-.05.29-.04.57-.03-.05.01-.1.02-.1.05-.18-.03-.17,0-.48-.01Z"/>
      <path class="cls-1" d="M40.88,5.01c-.03-.06.55-.05.48.01h-.48Z"/>
      <path class="cls-1" d="M41.45,4.93c.14-.03.51-.06.67-.03.01.03-.12.03-.1.06-.24,0-.46,0-.57-.03Z"/>
      <path class="cls-1" d="M44.22,5c.14-.02.23-.04.48-.04.08.06-.32.07-.48.04Z"/>
      <path class="cls-1" d="M47.37,4.79c-.03-.06.45-.05.57-.03,0,.05-.34.03-.57.03Z"/>
      <path class="cls-1" d="M49.3,1.04c.23-.06.24,0,.1-.09.36,0,.27.05.57.05-.07.05-.07.03,0,.08-.38-.02-.41-.02-.67-.04Z"/>
      <path class="cls-1" d="M50.64,1.03c.07-.03.54.01.77,0,.02.06-.54,0-.48.07-.26,0-.09-.06-.28-.07Z"/>
      <path class="cls-1" d="M54.28,1.17c.07-.03.26-.03.48-.03.03.07-.24.05-.48.03Z"/>
      <path class="cls-1" d="M55.11,4.91c.24-.08-.18-.04-.38-.11.09-.06.53.09.48,0,.13.01.15.03.28.04-.03.02-.17.02-.19.04.19.02.63.02.57.12-.38-.03-.18-.07-.76-.09Z"/>
      <path class="cls-1" d="M55.49,4.81c.14-.04.47.02.76.03-.09.03-.37.02-.67,0,.02-.02-.02-.03-.09-.04Z"/>
      <path class="cls-1" d="M56.16,4.93s.24-.03.48-.01c.02.05-.34.04-.48.01Z"/>
      <path class="cls-1" d="M57.4,4.76c.02-.06,1.08-.06,1.24.01-.23,0-.57-.07-.67.02-.29,0-.28-.04-.57-.04Z"/>
      <path class="cls-1" d="M58.59,1.23c.36.05.72,0,.76.08-.24-.03-.75-.02-.76-.08Z"/>
      <path class="cls-1" d="M58.87,1.47c.18-.01.34-.03.58-.03-.09.05-.3.06-.58.03Z"/>
      <path class="cls-1" d="M62.08,4.85c.04-.05.57-.05.77-.02-.22.01-.43.03-.77.02Z"/>
      <path class="cls-1" d="M62.55,5.06c-.11,0-.08-.03-.09-.05.38.02.72,0,.86.07-.22-.02-.54-.03-.76-.02Z"/>
      <path class="cls-1" d="M63.66,1.36c.23.03.62.04.67.09-.41,0-.61-.04-.67-.09Z"/>
      <path class="cls-1" d="M65.09,1.44c.45,0,.63.05.86.09-.1.06-.61-.07-.57,0-.29,0-.2-.06-.28-.09Z"/>
      <path class="cls-1" d="M66.38,4.8v-.05c.43.01.41,0,.77.02.05.03.14.05.19.07.13-.01.29-.01.38-.03.14,0,.03.05.19.06-.1.04-.71,0-.76-.05-.21.03-.41,0-.76-.02Z"/>
      <path class="cls-1" d="M68.34,1.65s.04-.07.29-.05c.02.04.03.08-.29.05Z"/>
      <path class="cls-1" d="M74.06,2.39c.09-.04.37.04.67.03-.05-.05-.07-.04-.19-.11.71.04,1.55.04,2.29.12.26.03-.06-.08.19-.05.25.03.34.08.57.11-.07.06-.53.02-.67-.04-.13,0-.18.02-.19.05-.4-.07-.77-.04-1.05-.12-.69-.04-.86.04-1.06.11-.16-.04-.29-.08-.57-.11Z"/>
      <path class="cls-1" d="M75.09,2.77c.47.05.73.04,1.15.04.05.04-.18.01-.19.04.4.1.96,0,1.62.07-.41.08-1.07.01-1.63,0,.01-.06-.5-.05-.57-.09-.14,0,.04.02,0,.05-.3-.01-.33-.06-.38-.1Z"/>
      <path class="cls-1" d="M75.06,5.29c.18-.05.64-.04.96.01-.24,0-.41.02-.96-.01Z"/>
      <path class="cls-1" d="M75.12,4.08c.11-.05-.02-.04.1-.08.36.03-.07.05.28.08-.03.02-.24,0-.38,0Z"/>
      <path class="cls-1" d="M75.7,4.05c.4-.07.58.11.18.12-.6-.11.4-.03-.18-.12Z"/>
      <path class="cls-1" d="M76.29,1.87c.31.02.23.08.57.1-.06.02-.21.02-.38.01.03-.05-.21-.06-.19-.11Z"/>
      <path class="cls-1" d="M77.36,3.39c-.2-.04-.57-.06-.66-.12.36.02.63.06.66.12Z"/>
      <path class="cls-1" d="M76.86,3.8c.29-.06.39.02.67-.04-.17.05.06.04.09.1-.28,0-.59-.01-.76-.06Z"/>
      <path class="cls-1" d="M77.45,5.26c.17-.05.53.02.96.02.01.04-.15.04-.29.05-.38-.04-.29-.04-.67-.07Z"/>
      <path class="cls-1" d="M78.06,2.91c.4,0,.17.08.38.1-.03.02-.24,0-.38,0,.05-.05-.21-.07,0-.1Z"/>
      <path class="cls-1" d="M77.99,2.3c.17,0,.75,0,.86.03-.01.06-.49,0-.86-.03Z"/>
      <path class="cls-1" d="M78.76,4.11c-.02-.06.6-.04.77,0-.26,0-.5,0-.77,0Z"/>
      <path class="cls-1" d="M79.45,2.02c.2-.02.96.03.95.08-.41-.02-.68-.05-.95-.08Z"/>
      <path class="cls-1" d="M79.61,4.3c-.24-.07.26-.11.58-.1-.04.03.07.03.19.04-.21.04-.35.17-.77.1-.07-.06.35,0,.38-.04-.02-.04-.42-.03-.38,0Z"/>
      <path class="cls-1" d="M79.65,5.37c-.24-.08.39-.01.67-.01.06.1-.47-.03-.67.01Z"/>
      <path class="cls-1" d="M81.05,2.45c.07-.06.66,0,.76.04-.25.01-.62,0-.76-.04Z"/>
      <path class="cls-1" d="M81.14,4.26c.15-.09.87.08,0,0h0Z"/>
      <path class="cls-1" d="M81.33,2.71c-.02-.07.44-.09.67-.04-.16.03-.34.05-.67.04Z"/>
      <path class="cls-1" d="M81.84,5.46c-.27-.06.44-.03.77,0,0,.07-.72-.01-.77,0Z"/>
      <path class="cls-1" d="M82.21,4.09c.16-.04.46,0,.67.04-.09.03-.37-.04-.67-.04Z"/>
      <path class="cls-1" d="M83.05,2.71c.07-.03.55.02.48.06-.31,0-.29-.04-.48-.06Z"/>
      <path class="cls-1" d="M83.54,5.79c.17-.05.5-.03.86,0-.08.06-.58.04-.86,0Z"/>
      <path class="cls-1" d="M83.92,4.24c.05-.02.14-.03.19-.05.11.01.24.04.09.04,0,.02.12.02.19.03-.12.02-.37.02-.48-.01Z"/>
      <path class="cls-1" d="M84.01,2.78c0-.05.7,0,.77.01-.18.03-.44.04-.77-.01Z"/>
      <path class="cls-1" d="M84.01,4.36c-.08-.07.32-.06.48-.02-.09.02-.18.05-.48.02Z"/>
      <path class="cls-1" d="M84.08,3.06s.24-.03.48-.02c.09.07-.38.04-.48.02Z"/>
      <path class="cls-1" d="M84.39,2.74c-.32-.06.76.07.48-.04l.48.03s-.15.04-.2.07c-.23-.02-.43-.05-.76-.06Z"/>
      <path class="cls-1" d="M84.5,4.11s.1-.01.1-.03h.19c-.28.02.45.14-.1.12-.01-.02.02-.03.1-.03-.05-.03-.15-.05-.28-.07Z"/>
      <path class="cls-1" d="M84.69,5.84c.02-.07.65,0,1.05.01-.15.04-.6.01-1.05-.01Z"/>
      <path class="cls-1" d="M84.96,2.82c.07-.03.54.02.77.03-.04.07-.5,0-.77-.03Z"/>
      <path class="cls-1" d="M85.83,2.81c.15-.04.56.03.57.07.14-.02.47-.02.67.03-.4.04-.9-.01-1.24-.09Z"/>
      <path class="cls-1" d="M86.23,5.65s.22,0,.29-.05c.23.02.39.09.18.11-.07-.04-.66-.03-.57-.08.08,0,.09.01.09.02Z"/>
      <path class="cls-1" d="M88.02,2.97c.08-.05.57,0,.96.01-.2.03-.57,0-.96-.01Z"/>
      <path class="cls-1" d="M87.94,5.89v-.05c.61.03,1.27.03,1.81.11-.38.04-1.18-.04-1.81-.06Z"/>
      <path class="cls-1" d="M88.24,2.45l.38.02s-.15.04-.2.07c-.3-.04-.05-.04-.19-.09Z"/>
      <path class="cls-1" d="M89.17,4.52c.1.06.04.05-.1.07-.07-.04-.4-.05-.57-.08.07-.02.17,0,.29.02.15,0,.08-.05.38,0Z"/>
      <path class="cls-1" d="M89.22,5.24s.09-.02.1-.04c.22.01.28.04.57.05-.51.02.2.04-.29.06-.25-.01-.07-.07-.38-.07Z"/>
      <path class="cls-1" d="M89.53,3.45c.29,0,.58-.03.67.03-.21.02-.44,0-.67-.03Z"/>
      <path class="cls-1" d="M89.56,4.46c-.07-.05.33,0,.2-.07.53.03.33.06.95.09-.14.09-.84-.07-1.15-.02Z"/>
      <path class="cls-1" d="M90.18,5.18c-.01.05.31.11.09.17-.36-.05-.15-.15-.47-.16-.25-.05.2-.04.38,0Z"/>
      <path class="cls-1" d="M90.8,6.03v-.06s.39.02.39.02c-.14,0-.12.06-.39.04Z"/>
      <path class="cls-1" d="M91.18,3.09c-.25-.03.38,0,.48,0-.08.07.26,0,.19.06-.3-.01-.34-.05-.67-.06Z"/>
      <path class="cls-1" d="M91.12,4.07s.18-.02.1-.07c.11.03.17.06.48.06-.09.03-.28.03-.58.01Z"/>
      <path class="cls-1" d="M91.66,6.04c.72-.02,1.37,0,2.29.12-.56,0-1.54-.02-2.29-.12Z"/>
      <path class="cls-1" d="M92.07,5.69c.14-.02.2-.05.29-.08.22.02.36.05.67.06,0,.08-.59.02-.96.02Z"/>
      <path class="cls-1" d="M92.44,5.88v-.03c.08,0,.09,0,.1,0,.09,0,.07.02.09.04.26.02.19-.01.38.02-.01.03-.41-.02-.57-.02Z"/>
      <path class="cls-1" d="M92.59,4.93c.22,0,.36,0,.67.03-.07.04-.44,0-.48.05-.13-.02-.18-.05-.19-.08Z"/>
      <path class="cls-1" d="M93.06,5.19v.03c-.26-.02-.2.01-.38-.02v-.03c.19-.01.12,0,.38.02Z"/>
      <path class="cls-1" d="M93.99,5.57c.12-.02.33,0,.57,0-.06.06-.26.02-.57,0Z"/>
      <path class="cls-1" d="M94.03,4.94s.04-.01.1,0c.15,0,.16.03.28.03-.17.02-.22.03-.1.09-.49-.01-.13-.11-.28-.12Z"/>
      <path class="cls-1" d="M94.11,3.8s.09-.02.1-.04c.41.07.48,0,.96.05.01.04-.15.04-.2.07-.42-.05-.49-.05-.86-.07Z"/>
      <path class="cls-1" d="M94.17,2.78s.43.04.29-.03c.09.02.35.03.28.07-.3-.03-.38.01-.57-.04Z"/>
      <path class="cls-1" d="M94.67,3.92s.07-.02.19,0c.09,0,.08-.01.1-.03.21.01.3.03.28.07-.2.02-.27-.03-.57-.04Z"/>
      <path class="cls-1" d="M95.16,3.87c.13-.01.06-.07.2-.08.38.03-.11.05.28.07.04.05-.21.04-.48.02Z"/>
      <path class="cls-1" d="M95.07,6.51c0-.05.28-.04.58-.03-.15.02-.35.08-.58.03Z"/>
      <path class="cls-1" d="M95.34,3.99s.26,0,.2-.05c.25.01-.1.08.28.08-.03.04-.42-.02-.48-.03Z"/>
      <path class="cls-1" d="M95.77,3.36c.34.04.35.02.67.06-.19,0-.74,0-.67-.06Z"/>
      <path class="cls-1" d="M95.83,3.83s.42.02.48.03c0,.02-.12,0-.19,0,.06.02.22.03.19.06-.41.01-.21-.07-.47-.1Z"/>
      <path class="cls-1" d="M96.47,2.92c.15-.02.67.04.86.03-.07.07-.42,0-.86-.03Z"/>
      <path class="cls-1" d="M96.33,6.28s.09-.03.1,0c.09,0,.08-.01.1-.03.33.01.34.08.18.09-.19-.01-.12-.05-.38-.06Z"/>
      <path class="cls-1" d="M96.5,3.91c.06-.02.21-.02.38,0-.02.02.02.03.09.04-.03.04-.42-.02-.48-.03Z"/>
      <path class="cls-1" d="M96.52,3.57c.07-.04.2.03.38.03v.03c-.08,0-.16,0-.29,0,0-.02.02-.04-.09-.06Z"/>
      <path class="cls-1" d="M96.53,3.47c-.03-.06.35-.02.58-.02.1.08-.39.02-.58.02Z"/>
      <path class="cls-1" d="M96.6,3.72c.08-.01.13-.03.1-.07.6.11.49-.07.96.02-.27.03-.06.08-.2.12.08.03.24.05.48.07-.35.02-.84-.08-1.33-.12Z"/>
      <path class="cls-1" d="M96.68,5.46c-.08-.07.51,0,.57.02-.01.03-.4-.02-.57-.02Z"/>
      <path class="cls-1" d="M96.87,4.02l.38.03c.07.05-.26.01-.2.07-.14-.02-.13-.06-.19-.09Z"/>
      <path class="cls-1" d="M97.71,3.02c.05,0,.1-.02.1-.04.37.09,1.14.06,1.43.15-.5-.02-1-.02-1.53-.11Z"/>
      <path class="cls-1" d="M99.43,4.42c.05,0,.1-.02.1-.04.32.03.77.04.95.08.07.07-.46-.01-.39.05-.25-.06-.36-.06-.66-.09Z"/>
      <path class="cls-1" d="M99.39,6.33c.41-.07,1.05.08,1.53.04v.06c-.73-.08-.85-.03-1.53-.11Z"/>
      <path class="cls-1" d="M99.41,6.19c.22-.03.91,0,1.05.04-.07.05-.7-.03-1.05-.04Z"/>
      <path class="cls-1" d="M100,4.59c.28-.03.53.02,1.05.04v.08c-.36-.04-.7-.08-1.05-.12Z"/>
      <path class="cls-1" d="M100.24,6.55c.16,0,.52,0,.67.03-.14.02-.5,0-.67-.03Z"/>
      <path class="cls-1" d="M101.24,4.6c.17-.07-.3-.08-.47-.12.26,0,.33-.05.77,0-.14.05.26.05.19.09-.41-.05-.12.07-.48.03Z"/>
      <path class="cls-1" d="M100.92,5.14c-.19-.03.61,0,.67.03-.09.06-.38-.02-.67-.03Z"/>
      <path class="cls-1" d="M100.84,6.26c.01-.08.73.1.77,0,.08,0,.09.02.19.03-.02.01.04.02.09.02-.24,0-.78,0-1.05-.06Z"/>
      <path class="cls-1" d="M101.31,3.63c.3-.06.86-.01,1.53.05-.51.05-1.13-.07-1.53-.05Z"/>
      <path class="cls-1" d="M101.3,6.45v-.05c.85.06,1.48.07,2.01.13-.73.04-1.19-.05-2.01-.08Z"/>
      <path class="cls-1" d="M101.45,4.37c-.06-.07.36.03.67.03-.09.06-.38-.02-.67-.03Z"/>
      <path class="cls-1" d="M101.48,6.64c-.05-.07.52.02.76.02-.07.04-.54.03-.76-.02Z"/>
      <path class="cls-1" d="M102.72,6.73c-.03-.07.7-.05.57.04l-.57-.04Z"/>
      <path class="cls-1" d="M102.94,3.7s.45,0,.57.03c-.14.03-.33,0-.57-.03Z"/>
      <path class="cls-1" d="M103.17,5.79c.1-.03.6.04.86.05-.09.03-.67,0-.86-.05Z"/>
      <path class="cls-1" d="M103.28,4.23c.2-.02.14-.02.1-.09.11.11.87.07.95.18-.37-.06-.59-.07-1.05-.09Z"/>
      <path class="cls-1" d="M103.47,6.85s.44-.02.57,0c-.01.04-.32,0-.57,0Z"/>
      <path class="cls-1" d="M103.88,6.59c.01-.07.86,0,.95.09-.43-.02-.57-.06-.95-.09Z"/>
      <path class="cls-1" d="M104.09,6.36c.14-.01.48-.05.48.03-.3-.03-.3,0-.48-.03Z"/>
      <path class="cls-1" d="M104.23,4.36c.04-.07.8.04,1.15.05-.16.08-.67-.08-1.15-.05Z"/>
      <path class="cls-1" d="M104.23,6.99c.1-.05.51-.02.86,0v.06c-.38-.04-.71-.03-.86-.06Z"/>
      <path class="cls-1" d="M104.6,4.58v-.06c.3,0,.35.04.58.06-.06.04-.36,0-.58,0Z"/>
      <path class="cls-1" d="M105.01,4.26s.12.11-.2.07c-.05-.04-.14-.09.2-.07Z"/>
      <path class="cls-1" d="M105.23,6.4c-.25-.01-.41-.04-.38-.08.23.02.21-.01.48.02.04.04-.07.04-.1.06Z"/>
      <path class="cls-1" d="M105.28,7.04c.02-.06,1.07.02,1.33.1-.38-.03-.95-.01-1.24-.11-.08,0-.09,0-.1,0Z"/>
      <path class="cls-1" d="M105.78,4.18s.04-.01.1,0c.25.02.31,0,.29-.04.43.07.56.07,1.05.1-.04.04.17.05.09.09-.6-.1-.79-.09-1.53-.13Z"/>
      <path class="cls-1" d="M105.9,3.92c-.07-.07.45.01.67.02-.23.02-.29.03-.67-.02Z"/>
      <path class="cls-1" d="M105.95,7.01c.16,0,.52,0,.67.03-.16,0-.52,0-.67-.03Z"/>
      <path class="cls-1" d="M106.25,6.9c.33.01.34.08.18.1-.21-.02-.2-.06-.18-.1Z"/>
      <path class="cls-1" d="M106.85,3.99c.17-.05.93.05,1.05.06-.1.03-.78-.03-1.05-.06Z"/>
      <path class="cls-1" d="M107.04,4.12c-.31-.05.54-.04.38.03-.22,0-.36-.07-.38-.03Z"/>
      <path class="cls-1" d="M107.05,5.19c.11,0,1.2,0,1.34.1-.77-.09-.32.17-1.06.03.16-.04.34-.1-.28-.13Z"/>
      <path class="cls-1" d="M107.84,6.1c.65-.02.92.13,1.52.17-.22.08-.67-.07-1.34-.09-.03-.03.09-.02.1-.04-.15,0-.16-.03-.29-.04Z"/>
      <path class="cls-1" d="M108.29,6.52s-.04.07-.29.04c-.17-.04.03-.06.29-.04Z"/>
      <path class="cls-1" d="M108.12,4.98c.18-.04.73.02,1.05.08-.19.04-.64-.05-1.05-.08Z"/>
      <path class="cls-1" d="M108.15,4.61c.08-.02.24-.02.48,0,.06.06-.34.03-.48,0Z"/>
      <path class="cls-1" d="M108.53,7.17c-.18-.03.95.04.86.03.24.1-.48-.01-.86-.03Z"/>
      <path class="cls-1" d="M109.05,5.36c-.38-.07.52-.04.38.03-.22,0-.36-.07-.38-.03Z"/>
      <path class="cls-1" d="M109.08,6.17s.36.01.39-.02c.13.02.17.05.19.08-.24-.02-.46-.03-.57-.06Z"/>
      <path class="cls-1" d="M109.48,5.96c-.07-.05.19-.02.2-.05.3.03.73.04.66.1-.37-.04-.47,0-.86-.05Z"/>
      <path class="cls-1" d="M112.32,6.47c-.59-.08-1.56-.07-1.62-.16.46,0,.85.12,1.24.07-.76-.08-1.42-.1-2.19-.14.34.06-.19.04-.2.07.89.15,1.33.1,2.38.21.23,0,.06-.03.19-.03.02.03.16.01.19,0ZM110.03,6.3c-.08-.07.5.01.57.03-.02.03-.41-.03-.57-.03Z"/>
      <path class="cls-1" d="M110.63,6.02s.47.03.67.04c-.12.04-.49-.02-.67-.04Z"/>
      <path class="cls-1" d="M111.59,4.83c-.19.04-.44-.03-.86-.05.25,0,.6.01.86.05Z"/>
      <path class="cls-1" d="M110.86,4.29c.08-.05,1.52.1,1.82.13-.51,0-1.13-.09-1.63-.07.14-.01.15-.05-.19-.06Z"/>
      <path class="cls-1" d="M111.03,4.61c.4-.04,1.19.05,1.62.1-.39.02-.97-.04-1.62-.1Z"/>
      <path class="cls-1" d="M111.29,6.17l.48.04c-.38.02-.34.11-.48-.04Z"/>
      <path class="cls-1" d="M111.66,7.48c-.08-.04-.4-.06-.37-.11.37.04.16-.06.57,0-.03.02-.19,0-.19.02l.28.07s-.28,0-.29.03Z"/>
      <path class="cls-1" d="M111.55,6.52c.15-.03.56.04.58.01.28.08-.31.02-.58-.01Z"/>
      <path class="cls-1" d="M111.58,6.08c.1-.02.41.01.58.01.15.09-.47.01-.58-.01Z"/>
      <path class="cls-1" d="M111.6,5.89c.07-.02.13-.03.2-.05.26.04.45.05.57.01.16.03.33.07.38.11-.48-.05-.74-.04-1.15-.08Z"/>
      <path class="cls-1" d="M111.56,7.59s.32,0,.57.01c-.14.01-.41.03-.57-.01Z"/>
      <path class="cls-1" d="M111.95,6.27c.23-.02-.18-.1.29-.06.15.04-.05.07-.29.06Z"/>
      <path class="cls-1" d="M112.19,5.68c.15-.04.42.05.67.05-.09.06-.5-.02-.67-.05Z"/>
      <path class="cls-1" d="M112.2,6.75c-.03-.06.45-.03.58,0-.04.02-.17.03-.19,0-.11,0-.08.02-.1.04-.08-.01-.15-.03-.29-.04Z"/>
      <path class="cls-1" d="M112.35,7.26c.33,0,1.02,0,1.34.09-.37.02-.85-.02-1.34-.09Z"/>
      <path class="cls-1" d="M112.63,5c.32-.03.95.06,1.43.1-.19.02-1.03-.07-1.43-.1Z"/>
      <path class="cls-1" d="M113.66,5.32c-.3-.03-.3,0-.48-.04.05,0,.1-.02.1-.04.08.02.26.05.29.02.08,0,.09.01.09.02v.03Z"/>
      <path class="cls-1" d="M113.75,5.41s-.04.01-.1,0c.02.03.28.03.28.06.09.07-.43-.02-.39.03-.27-.01.08-.08-.18-.1.06-.02.21-.01.38,0Z"/>
      <path class="cls-1" d="M113.47,7.65c-.06-.07.72.02.57.06-.22-.02-.28-.05-.57-.06Z"/>
      <path class="cls-1" d="M113.78,7.38s.09-.02.1-.04c.18.02.41.04.38.08l-.48-.04Z"/>
      <path class="cls-1" d="M114.52,5.41c-.09,0-.17,0-.19.02-.26-.04.23-.05-.28-.07,0-.03.26,0,.2-.05.24,0,.29.09.38.05.28.04-.06.05,0,.08-.08,0-.09-.01-.09-.02Z"/>
      <path class="cls-1" d="M114.04,7.77c.12-.04.49.02.67.04-.04.03-.47-.03-.67-.04Z"/>
      <path class="cls-1" d="M114.35,7.43c-.12-.07.57-.02.67.02.07.07-.45-.02-.67-.02Z"/>
      <path class="cls-1" d="M114.47,6.04v-.05c.24.03.66.05.67.1-.18-.05-.45-.05-.67-.06Z"/>
      <path class="cls-1" d="M114.86,7.03c.08-.05.18-.09.3-.12.07.02.1.17-.3.12Z"/>
      <path class="cls-1" d="M115.3,7.51s.12-.02.1-.06c.57.05,1.04.1,1.33.13-.27.05-.76-.03-1.43-.07Z"/>
      <path class="cls-1" d="M115.74,4.62s.67.03.48.07c-.3-.01-.18-.06-.48-.07Z"/>
      <path class="cls-1" d="M115.93,8.05c0-.07.56.03.47.07-.29-.01-.18-.06-.47-.07Z"/>
      <path class="cls-1" d="M117.07,8.16v-.05c.67.09,1.08.05,1.62.15-.59.02-1.07-.1-1.62-.1Z"/>
      <path class="cls-1" d="M117.11,7.64c.14-.03.31,0,.76.03.05.07-.52-.02-.76-.03Z"/>
      <path class="cls-1" d="M117.85,5.79c.21-.06.56.09.67.02.3.06-.28.04-.48.02-.04-.02-.08-.04-.19-.05Z"/>
      <path class="cls-1" d="M118.77,5.07c.38.01,1.46.12,1.72.13-.15.05-1.38-.09-1.72-.13Z"/>
      <path class="cls-1" d="M118.75,6.43c.33-.02.73.1,1.04.14-.48.03-.63-.08-1.04-.14Z"/>
      <path class="cls-1" d="M118.83,5.5c0-.05-.03-.12.3-.09-.03.05,0,.11-.3.09Z"/>
      <path class="cls-1" d="M118.78,8.27c.09-.03.54,0,.47.06-.22-.01-.36-.03-.47-.06Z"/>
      <path class="cls-1" d="M120.56,6.61c.21-.01.44.01.67.04-.14,0-.24.03-.48,0-.04-.02-.08-.04-.19-.05Z"/>
      <path class="cls-1" d="M121.07,6.21s.14-.04.39-.01c.03.05-.14.04-.39.01Z"/>
      <path class="cls-1" d="M121.38,6.04c.26.04.33.09.37.15-.39-.03-.25-.1-.37-.15Z"/>
      <path class="cls-1" d="M121.3,8.05c-.06-.07.37-.01.67,0-.08.04-.31.03-.67,0Z"/>
      <path class="cls-1" d="M121.44,6.37c.08-.03.59,0,.57.07-.23-.02-.46-.04-.57-.07Z"/>
      <path class="cls-1" d="M121.52,6.56c.14-.03.66.05.95.07-.27.02-.77-.04-.95-.07Z"/>
      <path class="cls-1" d="M121.98,5.76s.09-.02.1-.04c.51.06.78.09,1.33.15-.26.04-1-.07-1.43-.11Z"/>
      <path class="cls-1" d="M122.13,7.26c.09-.05.77.05,1.15.07-.31,0-.77-.02-1.15-.07Z"/>
      <path class="cls-1" d="M122.4,6.46c.43,0,.88.07,1.24.08-.11.1-.92-.05-1.24-.08Z"/>
      <path class="cls-1" d="M122.72,8.16c.26,0,.44-.02.76.04-.08.05-.48.01-.76-.04Z"/>
      <path class="cls-1" d="M123.49,6.08c.09-.06.3,0,.58,0,.05.06-.29.02-.58,0Z"/>
      <path class="cls-1" d="M123.61,6.81c.45.04.18.06.18.11-.27-.04-.31-.08-.18-.11Z"/>
      <path class="cls-1" d="M123.75,5.34c.05-.05,1.06.04.86.11-.15-.05-.47-.08-.86-.11Z"/>
      <path class="cls-1" d="M123.73,6.58c.47,0,1.04.06,1.53.12-.63-.03-1.1-.07-1.53-.12Z"/>
      <path class="cls-1" d="M123.88,5.94c.12-.02.38-.01.48-.04.26.02.2.07.47.09-.22,0-.56-.02-.96-.05Z"/>
      <path class="cls-1" d="M123.89,6.93c-.09-.07.43.03.39-.03,1.38.19.49.08-.39.03Z"/>
      <path class="cls-1" d="M124.61,7.42c.21.07.32.05.66.11-.11.02-.5-.03-.67-.03-.18-.05,0-.04,0-.08Z"/>
      <path class="cls-1" d="M124.72,6.26c.08-.07.58.02.77.04-.04.02-.17,0-.2.03-.29-.01-.28-.05-.57-.07Z"/>
      <path class="cls-1" d="M125.19,6.42c-.3-.09.53.03.67.06-.18.06-.55-.08-.67-.06Z"/>
      <path class="cls-1" d="M125.32,7.05c-.08-.07.38.01.57.02-.14.04-.22.02-.57-.02Z"/>
      <path class="cls-1" d="M125.27,8.67c.32.02,1.35.06,1.52.17-.48-.09-.84-.06-1.52-.17Z"/>
      <path class="cls-1" d="M125.41,8.14s.4.03.57.04c0,.04-.45,0-.57-.04Z"/>
      <path class="cls-1" d="M126.34,8.47c.33-.03,1.13.04,1.33.12-.31-.03-.86-.06-1.33-.12Z"/>
      <path class="cls-1" d="M126.45,7.33s.04-.07.29-.04c.17.04-.03.06-.29.04Z"/>
      <path class="cls-1" d="M126.46,8.24c.11-.03,1.06.02.95.09l-.95-.09Z"/>
      <path class="cls-1" d="M127.28,7.7c.18-.06.85.08,1.14.08-.04.07-.8-.06-1.14-.08Z"/>
      <path class="cls-1" d="M127.54,5.9c.04-.07.7.07.77.04.18.1-.53-.04-.77-.04Z"/>
      <path class="cls-1" d="M127.44,9.06c-.08-.07.38.01.57.02-.01.04-.32,0-.57-.02Z"/>
      <path class="cls-1" d="M127.62,7.06v-.05s.58.05.58.05c-.34.03.54.05.37.12-.63-.03-.57-.12-.95-.12Z"/>
      <path class="cls-1" d="M127.95,7.65c-.05-.07.52.03.76.04-.17,0-.51-.03-.76-.04Z"/>
      <path class="cls-1" d="M128.8,5.79s-.36,0-.48-.03c.01-.04.36,0,.48.03Z"/>
      <path class="cls-1" d="M128.98,9.01c.25,0,.73.01.76.09-.23-.03-.43-.06-.76-.09Z"/>
      <path class="cls-1" d="M129.31,6.49c.11-.06.39.04.76.06-.06.05-.55-.03-.76-.06Z"/>
      <path class="cls-1" d="M129.34,7.24c.1-.01,1.01.05.95.11-.49-.06-.61-.05-.95-.11Z"/>
      <path class="cls-1" d="M129.45,6s0-.09.29-.05c.15.04-.05.07-.29.05Z"/>
      <path class="cls-1" d="M129.6,8.52c.25-.03.6.05.95.06-.17.05-.58-.03-.95-.06Z"/>
      <path class="cls-1" d="M130.29,9.33c-.09-.06.3,0,.48.01-.13.03-.2.03-.48-.01Z"/>
      <path class="cls-1" d="M130.35,8.7c.14-.03.33,0,.57.04,0,.04-.45,0-.57-.04Z"/>
      <path class="cls-1" d="M130.69,9.14c.48.05.57.06,1.05.1-.1.08-.63-.05-.96-.03-.07-.02-.1-.05-.09-.07Z"/>
      <path class="cls-1" d="M130.74,8.64v-.05c.54.02.66.03,1.15.09-.15.07-.6.04-1.15-.04Z"/>
      <path class="cls-1" d="M130.86,9.37c.62,0,1.37.12,2,.18-.76-.05-1.34-.1-2-.18Z"/>
      <path class="cls-1" d="M131.16,6.24c.2-.02.31-.07.68-.05-.11.03-.23.05-.3.09l-.38-.04Z"/>
      <path class="cls-1" d="M131.06,9.32c.18,0,.61.02.76.06-.18,0-.61-.02-.76-.06Z"/>
      <path class="cls-1" d="M131.42,7.52s.59.03.57.05c0,.07-.44-.04-.57-.05Z"/>
      <path class="cls-1" d="M131.78,6.82c.42-.04,1.64.13,2.29.19-.69.05-1.06-.12-2.29-.19Z"/>
      <path class="cls-1" d="M131.98,8.7c.22.02.36.04.47.06-.01.03-.32-.02-.29.02-.17-.02-.21-.05-.18-.08Z"/>
      <path class="cls-1" d="M132.11,7.36c.09-.03.18-.06.3-.08.42.04-.01.04.09.09,1.32.1,2.27.19,3.14.31-.96-.02-2.31-.22-3.53-.31Z"/>
      <path class="cls-1" d="M132.27,9.65v-.05c.31.04.3,0,.39-.01.2.04-.11.09-.39.06Z"/>
      <path class="cls-1" d="M132.55,8.78c.09-.04.14,0,.38.02.1,0,.1-.03.29,0,.01.04-.15.04-.2.06-.24-.02-.29-.05-.47-.08Z"/>
      <path class="cls-1" d="M132.66,8.62c.24-.02.85.05,1.34.1-.26.04-.9-.05-1.34-.1Z"/>
      <path class="cls-1" d="M132.98,6.29v-.06c.26.02.25.06.29.09l-.29-.03Z"/>
      <path class="cls-1" d="M133.71,9.65c.14-.01.37,0,.67.03.07.07-.45-.02-.67-.03Z"/>
      <path class="cls-1" d="M134.49,6.58c.57.04.72.04,1.34.08.05.04.27.08.09.09-.25-.01-.34-.04-.28-.08-.3.05-.83-.06-1.14-.1Z"/>
      <path class="cls-1" d="M134.36,8.9l.38.04c.07.07-.46.02-.38-.04Z"/>
      <path class="cls-1" d="M135,6.36c.11,0,.34.01.57.04,0,.07-.27-.03-.38,0,.56.12.28.04,0,.1-.14-.04-.19-.08-.18-.13Z"/>
      <path class="cls-1" d="M135.02,7.08c.2,0,.52.07,1.05.12.04.11-.35,0-.67,0-.06-.04-.24-.08-.37-.12Z"/>
      <path class="cls-1" d="M135.03,8.98c.21,0,.7.05,1.24.11-.29.03-.82-.1-1.05-.04-.33-.04.01-.04-.19-.07Z"/>
      <path class="cls-1" d="M135.32,8.88c.25-.03,1.01.05,1.43.14-.49-.08-.81-.07-1.43-.14Z"/>
      <path class="cls-1" d="M135.9,6.97s.24.01.38.02c-.09.02,0,.09-.29.05,0-.03.05-.06-.09-.07Z"/>
      <path class="cls-1" d="M135.98,10.05c.21-.05-.01-.12.39-.09-.12,0-.13.09,0,.05.33.06-.28,0-.1.07l-.29-.03Z"/>
      <path class="cls-1" d="M136.21,7.74c.04-.07.4.02.48.03,1,.1.67.09-.48-.03Z"/>
      <path class="cls-1" d="M136.59,6.81s.62.05.49-.05c.27.06.05.11.57.12-.22.08-.49-.05-1.05-.07Z"/>
      <path class="cls-1" d="M137.09,7.59c.06.06.06.04,0,.08-.25-.03-.44-.13,0-.08Z"/>
      <path class="cls-1" d="M137,6.56c.15-.03.48.02.76.06-.07.03-.54-.05-.76-.06Z"/>
      <path class="cls-1" d="M137.55,7.73c-.07-.07.46-.02.38.04l-.38-.04Z"/>
      <path class="cls-1" d="M137.87,7.47v.1c-.15-.02-.38-.14,0-.1Z"/>
      <path class="cls-1" d="M137.9,10.02s-.12-.02-.19-.04c.08,0,.11-.03.1-.05.79.06.86.11,1.71.17v.1c-.12,0-.27,0-.49-.03.11-.02.5.04.39-.04-.84,0-.97-.16-1.52-.11Z"/>
      <path class="cls-1" d="M138.23,6.71c.19-.02.76.08.77.01.29.08-.25.06-.49.05-.07-.02-.17-.04-.28-.06Z"/>
      <path class="cls-1" d="M138.51,9.65c.16,0,.67.04.76.06v.03c-.08,0-.16,0-.29-.01.07-.06-.33-.02-.47-.08Z"/>
      <path class="cls-1" d="M138.91,9.55s.4.03.57.04c0,.04-.45,0-.57-.04Z"/>
      <path class="cls-1" d="M139.16,9.87c.18,0,.58.01.76.06-.18,0-.61-.02-.76-.06Z"/>
      <path class="cls-1" d="M139.33,9.2v-.05c.56.08,1.29.13,1.71.19-.43-.01-1.07-.08-1.71-.14Z"/>
      <path class="cls-1" d="M139.92,9.91c.15-.03.42.06.67.07.01.09-.56-.03-.67-.07Z"/>
      <path class="cls-1" d="M140.49,8.2c-.14-.07.63.02.48.05l-.48-.05Z"/>
      <path class="cls-1" d="M141,7.88c.09-.05.23.02.57.04-.06.05-.36-.01-.57-.04Z"/>
      <path class="cls-1" d="M140.84,10.35c.09-.02.3,0,.57.03-.08,0-.11.03-.1.05-.3-.02-.29-.06-.47-.08Z"/>
      <path class="cls-1" d="M141.07,8.11v-.13c.42.02.26.15,0,.13Z"/>
      <path class="cls-1" d="M141.13,10.31c-.04-.08.65.05.58-.04.09.01.07.03.09.04.01.02.17.03.28.05-.27,0-.64,0-.95-.05Z"/>
      <path class="cls-1" d="M142.99,8.13c.17.04.07.09.18.13-.33-.03-.34-.12-.18-.13Z"/>
      <path class="cls-1" d="M143.97,8.92c-.08-.07.5.02.57.04-.18.01-.34,0-.57-.04Z"/>
      <path class="cls-1" d="M144.92,10.8c-.13-.07.55-.02.48.04-.15-.01-.16-.03-.28-.05.03.03-.08.02-.19.01Z"/>
      <path class="cls-1" d="M145.03,10.71s.12,0,.29.01c.18.01.4.03.62.05.46.04.92.1.98.16-.46-.07-1.1-.14-1.9-.22Z"/>
      <path class="cls-1" d="M145.35,10.42c-.07-.07.43-.01.57.03-.01.04-.32,0-.57-.03Z"/>
      <path class="cls-1" d="M146.14,8.42c.36-.01.37-.03.57.08-.22-.02-.28-.06-.57-.08Z"/>
      <path class="cls-1" d="M146.2,10.51v-.05c.23.03.7.05.76.1-.19.07-.45-.05-.76-.05Z"/>
      <path class="cls-1" d="M146.75,10.72c.15-.07,1.16.1,1.62.11-.28.04-1.07-.07-1.62-.11Z"/>
      <path class="cls-1" d="M146.9,11.14s.4.04.57.05c-.07.08-.21-.02-.57-.05Z"/>
      <path class="cls-1" d="M149.38,11.27c.42-.08,1.14.12,1.9.16-.49.02-1.27-.16-1.9-.16Z"/>
      <path class="cls-1" d="M149.78,8.57c.3.03.3.07.28.11-.19-.03-.25-.07-.28-.11Z"/>
      <path class="cls-1" d="M150.11,8.16c.17,0,.28-.02.48.04.03.06-.42-.02-.3.06-.14-.03-.2-.06-.18-.1Z"/>
      <path class="cls-1" d="M149.97,11.19c.1-.07.62.08.66.12l-.48-.05c.05,0,.1-.02.1-.04l-.29-.03Z"/>
      <path class="cls-1" d="M150.81,8.85c.28.06-.09.06-.01.11-.32-.04-.05-.08.01-.11Z"/>
      <path class="cls-1" d="M152.18,8.66c.1-.03.04-.1.39-.05-.17,0-.05.1-.39.05Z"/>
      <path class="cls-1" d="M152.78,8.44c.05,0,.1-.01.1-.04.26.06.39.07.76.1v.06c-.16-.05-.48-.09-.86-.13Z"/>
      <path class="cls-1" d="M3.18,2.55c.07,0,.19,0,.19.01-.1,0-.11.01-.19.02-.16-.03-.56,0-.86,0-.33.17-.31.33.1.48-.49.04.04.06-.38.12.39-.02.75-.05,1.15-.07-.13.07-.03.17-.57.17-.1.07.15.07.29.1-.52.09-.27.27-.38.39.11,0,.22.02.29.03-.15.05.08.08-.19.15.24,0,.46,0,.57-.02-.14.03.1.06-.19.08.3.05.16.11.57.16.01-.03.32-.01.29-.05-.14-.03-.23.02-.29-.01.04-.03.37-.02.29-.07-.18,0-.32,0-.38-.03.42-.02.24-.06.09-.1.65-.07.86.02,1.34.06-.16.05-.24.05.1.08-.54.06.29.2-.09.29.13.02.36.01.38.05-.18.06.12.32.86.37.15-.1.22-.17-.19-.23.34-.1-.23-.14-.1-.26.43,0,.6.04.86.06.03.03-.13.03-.19.05.18,0,.21-.02.38-.02-.04.13.42.16.38.29.75.02.11.17.86.19-.3-.11-.15-.33-.57-.42.19-.01.06-.08.29-.08,1.35.04.75.42,1.91.53.28-.06-.1-.13-.29-.16.22-.07.28-.11.1-.16.73-.18,1,.17,1.43.24.02-.02.15-.02.29-.02-.16-.05-.08-.08.19-.1-.57-.02.2-.1-.29-.16-.17,0-.56.02-.57-.02.02-.06.34-.05.57-.03.18-.03.09-.07.19-.08.34.02.45.09.76.11-.13.04-.19,0-.29.03.48.03.31.08.38.16.34-.01.49.04.57-.02-.49-.02.15-.12,0-.18-.24-.03-.44.02-.57-.02.16-.05.62,0,.95-.03.02.04.06.09.38.11-.24.1.33.11.38.23.18.02.45.02.67.03.21-.05-.23-.09-.38-.13.26-.02,0-.1-.1-.11.24,0,.46,0,.48-.03-.18-.03-.17,0-.48,0,.11-.05-.15-.04-.19-.06.67.01-.13-.06.19-.08.72.12,1.18.28,1.91.4.07-.09-.25-.12-.09-.23-.14,0-.49.02-.48-.02.19,0,.19-.04.38-.05-.09.06.31.03.38.02.13.09.49.03.57,0,.23.02.25.07.67.05.04-.03-.14-.04,0-.05.35.07.25,0,.95.02.02.02.16.04.19.02-.24,0-.16-.07-.38-.08.45.04,1.77-.03,1.34.09.28.03.32-.01.57.02.12-.05-.33-.09-.09-.1.18,0,.07.05.29.05.07-.06.26,0,.57-.03.08.02.13.04.09.08.73-.02,1.49.09,2,.03.04-.03-.14-.04,0-.05.22,0,.36.03.67.02-.02.02-.16.03-.19.05.73-.02,2.01-.02,2.48.04.32-.06.78,0,1.05.03.26-.09,1.01-.03,1.34-.03-.11,0-.22-.02-.29-.04.1,0,.11-.01.19-.01.21.06.1,0,.29,0,.76,0,2.07.09,2.58,0,0,.03-.02.05-.1.06.61-.03.91,0,1.62.04-.03-.05.35-.02.38-.06.19.02.33.05.48.07.24-.02-.19-.06.1-.08.21.09.62,0,.95.05-.12.04-.47-.02-.48,0,.19.04,1.06.06.86,0-.06.01-.08-.05-.28-.09.3.01.3.07.67.08.19,0,.25-.03.38-.04-.08.04.46.05.38,0,.03-.05-.28.04-.29-.02.05-.04,0-.1.29-.09.04.04-.18.03-.1.08.18.03.24,0,.48,0-.2.03.12.06.28.09.06-.03-.11-.1.1-.1.08.11.85.06,1.33.08.23-.08.31-.04.67-.12.16.05-.36.06-.1.08.08,0,.26,0,.38,0,.04.07-.26.02-.29.04.14,0,.09.04.09.07.5,0,.87.02,1.15-.06-.24-.03-.46.02-.48-.01.23,0,.91-.03.95.02-.24.01-.3-.02-.38,0,.2,0,.09.06.28.07.02-.06.92-.03.48-.09.66.05,1.35.05,1.72.03-.11-.05-.24,0-.38-.04.12-.02.41,0,.67,0-.15.07.41.12.48.06-.26,0-.48-.08-.28-.09.26.06.77.09,1.24.08.05.03.05.07.19.09-.02-.05.3-.04.38-.07.08.05.08.04-.1.06.33-.02.59.02.95.04.03-.03-.13-.04-.19-.05.32-.02.3-.02.77-.03-.07.01-.24.07.09.07-.12-.08.3-.06.29-.12-.31,0-.2,0-.38-.03.03.04-.02.06-.19.06-.13-.04-.67-.01-.67-.07.48,0,.25-.11.29-.12.09.06.19-.01.29,0-.11.03.15.08.19.04-.14,0-.09-.04-.09-.07.24.05.46,0,.57-.02-.02.04-.02.08.19.09.12-.03.3-.04.38-.07,0,.02.04.04.09.05-.25.02-.52.03-.58.08.45.04.7,0,.77-.08.23.05.2-.03.57,0,0,.02.12.03.09.05-.3,0-.29-.04-.48-.01-.15.06.25.04.28.07-.1,0-.12.02,0,.03.01-.07.54-.03.77-.06-.13-.01-.18-.04-.19-.07.2,0,.36.1.48.06-.24-.04.16,0,.29,0-.37-.07-.18-.16-.09-.21.04.05.51.05.67.08v.03c-.3.01-.53-.06-.67-.02.07,0,.19,0,.19.02-.07,0-.19,0-.19.01.83.04,1.19.01,1.62.08,0-.07.58.04.76,0-.09-.02-.35-.02-.28-.06.1-.02.44,0,.57.03-.21.02.1.05-.19.06.22.01.37,0,.48,0-.23-.07-.07-.11-.47-.16.29,0,.28.04.57.04-.31.04.67.07.28.12.1.01.44.08.57.03-.24.02-.28-.06-.09-.05,0,.03.26.03.19.07-.13,0-.09.03-.19.03.04-.03-.36-.01-.38,0,.46.02.36.05.19.09.41,0,.39-.1.67-.12-.04.04.17.04.09.08.45.03.45-.04.77-.04,0,.04.45.1.57.07-.15-.1-.94-.06-1.14-.12.42,0-.15-.08.29-.15.49,0,.04.13.57.08-.23-.02-.02-.05.1-.01.02-.1-.79-.21-.09-.25-.02.02.05.14.47.13-.26-.05.08-.02.19,0,.02-.02-.03-.06.1-.06.21,0,.26.05.28.08.2-.05.4.04.57.05-.35-.09-.14-.08-.47-.13.12,0,.06-.02,0-.03.49,0,.72.04,1.05.07.13-.17.98.11,1.05.04-.02-.03-.16,0-.19-.02.18-.02-.13-.05.19-.06.03.03.36.03.38.06-.01.05.04.09.19.12.02-.01.08-.02.19,0,.16-.04-.35-.08-.09-.08.23,0,.35.09.48.05-.35-.05.54.04.19,0-.11-.01-.22-.03-.28-.04.18,0-.05-.03.1-.03.21.05.37,0,.67.02.38.06.42.2.85.15-.17,0-.22-.03-.19-.06l.57.02c.16-.06-.41-.02-.38-.06.19,0,.12-.04.38-.02,0,.03-.01.06.19.06.3-.02-.32-.09-.09-.1.06.08.55,0,.57.07-.02.02-.11.02-.19.02-.02-.01,0-.03-.09-.04,0,.05.28.07.47.1.22,0,.14-.07.39-.07.11.03.08.08.38.08.15-.03.2-.09.48-.09.64.02.67.02,1.43.04-.02.06.08,0,.28.03-.07.04.19.04.19.07.4,0,.53.02.86-.01-.06-.03-.45-.02-.48-.05l.38.02c.13-.03-.05-.04.19-.06-.14-.02-.49,0-.48-.04v-.03c.69.08,1.41,0,1.72.13.07-.05.33-.05.67-.03,0,.04-.16.03,0,.06.69-.02.6.08,1.34.09.22-.04.46,0,.96,0v.06c.3.03.2-.03.38-.03.16.03.32.06.47.09.08-.05-.15-.06-.19-.09.61.03.05-.03-.09-.05.57.02.71.06,1.05.04.03.04.29.05.38.08-.15.04-.54-.06-.48,0,.83.1,2.08.14,2.86.13.16,0,.05.05.19.06.25-.03.93.04,1.05-.01-.62-.01-.26,0-.38-.05-.03.02-.21,0-.29.02.03-.07-.3-.09,0-.13-.15-.04-.6-.04-.57-.09.92-.02.74.23,1.33.15-.14-.05-.34-.02-.47-.09l1.33.07s.02.06.19.07c.02-.02-.03-.06.1-.06.25.03.29.03.19.07.3,0,.39.02.48,0-.12-.01-.19-.03-.19-.06,1.6.07,2.78.08,4.39.21.08-.04-.37-.1-.09-.1.13.02.18.04.19.08,1.94.12,2.78.11,4.77.2.05.02.1.04.19.06.29-.07.61.01,1.05.02.06-.05-.11-.09-.18-.12.12,0,.13-.01.29,0,.05.06.17.11.37.15.18-.06.64.01.86-.03.08-.01-.13-.09.19,0,.19-.05-.04-.1.2-.13-.37,0-.2-.05-.38-.07-.06.02-.21.02-.38,0,0-.02-.08-.02-.09-.04.21-.05.18-.07-.09-.14.24.02.3,0,.38-.03-.14-.01-.35-.02-.38-.04.1-.04.5,0,.58-.05-.05.04-.17.05.19.08-.03-.06-.04-.1.39-.04,0,.03-.27,0-.29.01.47.06.44-.06.67-.07.26,0,.09.07.28.08.24,0,.34-.03.48-.05.11.04.11.09.47.1-.21-.06-.44-.15-.08-.18-.56.05-.95.07-.76-.07-.11-.05-.36.01-.48-.05.41-.02.63,0,1.15.06.11-.07.52.03.67-.02-.33-.06-1-.03-.76-.11-.26,0-.51-.01-.77-.02-.09-.01-.23-.1-.28-.07.04.03.27.05.19.09l-.29-.02c.12-.01.13-.05,0-.08-.59-.04-1.45-.09-1.91-.12h.19c-.29.02-.03.08-.2.1h-.19c.22-.09-.46-.19.11-.22-.29-.03-.19.03-.48,0,.09-.02.04-.08.2-.09.34.12,1.33.12,1.91.12-.35-.02-.51-.01-.67-.04.21-.02,0-.05-.09-.09-.74-.02-1.07,0-1.62-.12,0,.03-.08.04-.19.04-.06-.03-.45-.03-.48-.06.38,0-.18-.12.39-.09.2.02.2.04.09.05.38.03.52,0,.67.06.02-.02-.01-.05.1-.04.05.02.23.11.38.07-.22-.07.54.05.39-.04.31,0,.29.05.48.03,0,.02-.08.01-.1.03.3,0,1.26,0,.76.06.78.01,1.64.14,2.1.07.4.03.07.02.38.07.08-.09.89.07,1.05-.01.1.04.35.07.47.11-.17,0-.4-.02-.48,0,.12.05.36,0,.38.04-.03.05-.26-.02-.29.01.15.07,1.06.11.96.01-.22,0-.36-.03-.38-.06.14,0,.23-.01.29-.03-.24-.04-.4.02-.48-.03.2-.01.62.03.67-.02v.05c2.16.12,4.28.22,5.82.34-.05-.04-.14-.09.2-.07.08.05-.14.03-.1.07.33.03.32-.05.57,0-.01-.04-.01-.08.2-.07,0,.06.1.05,0,.1.6.03,1.75.09,2.48.13.09-.02.04-.08.2-.08.02.07.36,0,.47.07-.12.01-.47-.03-.48.01.18.02,1.36.15,1.24.08.01.04-.34-.02-.48-.02,0-.02-.35-.09-.09-.09.18.03.29.1.57.08.03-.03-.13-.04-.19-.06.29,0,.51.05.76.09-.06.02-.37-.03-.38,0,.21.03.71.1.76.04-.12-.01-.23-.02-.19-.05.17-.04.79.06.77,0-.08-.05-.24,0-.48-.04,0-.04.16-.02,0-.06-.47-.04-.06.04-.29.04-.04-.03-.12,0-.29-.02-1.17-.14-2.26-.16-3.25-.21.05,0,.11.02,0,.02-.02-.01-.08-.02-.19-.03,0-.02.12-.01.1-.04-.48-.03-1.17-.02-1.53-.08.12,0,.12.05,0,.05-.58-.05-.59-.09-.85-.19-.29,0,.26.07,0,.06-.09-.05-.48-.06-.57-.1-.27.05-.47-.04-.67-.08-.05.05.22.08-.1.07-.21-.02-.2-.05-.18-.09-.22,0-.44,0-.67,0,.3.04.58.08.66.09-.6,0-1.07-.13-1.33-.21-.23,0-.06.03-.19.04-.43-.05-.25-.04-.67-.06-.03.05.37.06.38.11-.56-.07-.56,0-.67,0-.53-.08-1.4-.07-1.81-.19.3.03.36,0,.48,0,.25.09.54.06,1.05.1.02-.06-.49-.06-.57-.1-.02.01,0,.03-.1.03-.55-.06-.43-.14-.37-.24-.28.04-.45-.07-.67-.01.27.01.52.03.47.08-.54-.07-1.1-.01-1.72-.16-1.07.08-2.28-.17-3.16-.12-.81-.05-.94-.2-.56-.28.44.06.4,0,.86.05-.27.03.23.04.28.08-.28-.04-.42.04-.2.07.09-.02.35,0,.39-.04-.22-.05.11-.06-.18-.11.2-.02.82.05.86-.01-1.02-.07-1.29,0-2.48-.19.29.03.35,0,.57.02.02.01,0,.03.09.04.15-.07-.43-.07-.47-.13.04-.02.13-.03.29-.01.48.08,1.17.12,1.82.08.44.14,1.31.03,1.81.13.1-.01.1-.05.2-.07-.19-.03-.59-.07-.76-.15-.29-.03-.19.03-.48,0,0-.02-.04-.04-.09-.05-.56-.03-1.08-.05-1.62-.1-.1.02-.16.04-.29.05-.04-.03-.11-.03,0-.05-.49-.05-.42.04-.48.05-.22-.03-.02-.09-.38-.1.08.08-.23.12-.68.12,0-.02-.12-.03-.09-.05.33.07.4-.03.39-.09-.29,0-.18,0-.48-.03-.09.02.28.07,0,.06-.19-.02-.26-.13-.57-.08.1.01.23.04.09.04l-.76-.1c-.1.04-.75,0-.96-.04-.05.07-.47.07-.3.14-.3-.03-.9-.04-.58.02.18,0,1.03.1.77-.04.25,0,.54,0,.67.06-.19,0-.42.03-.1.06.11-.02.09-.07.39-.04.3.04.05.04.19.09.7-.02,1.31.06,1.91.1-.39,0-.56.07-.87.09.11-.03-.15-.09-.19-.04.24.05-.09-.02-.29-.02-.2.04.37.07.09.07-.39-.06-.44-.11-.38-.1-.12-.03-.28.02-.48-.05-.25.02-.23.06-.67,0-.07.05.09.06.09.1-.41-.04-.12.07-.48.04.07-.06.31-.1.11-.19-.16,0-.16.04-.29.05-.02-.04-.65-.07-.86-.07.14.02-.03.02.09.07-.83-.05-.63.07-1.34.02v-.05c-.7,0-1.71-.07-1.72,0-.02-.02-.15-.03-.29-.03v-.05c-.58-.04-.88.02-1.24-.07-.02.02.01.05-.1.04-.28-.06-.59-.03-.86-.09-.28.05-.56.02-1.15-.01-.13.03.28.08,0,.08-.31-.03-.49-.08-.86-.11.1.05-.41.03-.1.08.22-.04.22.04,0,.03.96,0,1.55.11,2.3.06-.02.02-.16.02-.19.04.48,0,1.08.03,1.24.08.2-.03.71.02.96,0,.25.1.95.05,1.24.05-.02.02-.16.02-.19.04.47.04.78.11,1.05.06-.03.03.45.08.19.08-.06,0-.11,0-.1.01.26,0,1.02-.02,1.05.08-.52-.06-.95-.05-1.34-.04v-.08c-.6-.02-.64,0-1.05-.08.12.06.07.07-.1.09.45.05.78.09,1.14.11-.02.01,0,.03-.1.03-.52-.06-.7,0-1.24-.1.02.08-.75-.02-.86.03.44.04-.07.04,0,.06.43.15,2.37.09,2.57.21-.86,0-1.41-.14-2.01-.05.22.02.25.07.47.09.24,0-.17-.06.1-.06.64.05,1.04.13,1.62.09.1.14.47-.02,1.05.13.45-.07.85.08,1.15,0,.25.02.33.06.57.08.02-.02-.01-.05.1-.04,0,.03.26.03.28.05-.14.02-.02.05-.1.11.22.04.41-.02.67.06-.14.03-.26.06-.67.02.05-.09-.63,0-.66-.12.13.06-.24.08,0,.11v-.03c.46.02.82.08.95.09-.09.05-.47.04-.39.09-.23-.13-.95-.05-1.24-.15.13-.02.2-.12-.09-.13-.02.01-.08.01-.19,0,.46.07.01.15-.11.22-.6-.04-.11-.07-.28-.11,0,0-.01.02-.1.01,0,0-.08-.02-.1,0,.07.03.21.12-.19.05.01.09.47.06.66.1-.14.02-.5,0-.67,0-.19-.03-.08-.09-.38-.1-.07.04.21.08.18.14.08-.02.45.02.48.03-.38,0,.02.02,0,.06-.13,0-.02.06-.19.05-.11,0-.15-.03-.19-.04,0-.02.17,0,.19-.02-.18-.02-.07-.07-.38-.07.06.07-.36.04,0,.1-.13.02-.45-.02-.38-.07-.5-.04-.06.06-.29.06-.36-.13-.3-.14-.38-.04-.11,0-.15-.03-.19-.04,0-.02.17,0,.19-.02-.07,0-.11-.02-.09-.04-.28.01-.79,0-.86-.08.3.06.1-.09.58-.03.03-.08-.62-.17-.95-.15.58.05,0,.05-.1.08.14.01.35.01.38.04-.2.01.05.13-.39.09-.06-.06.21-.05.2-.1-.27-.04-.49-.03-.67,0-.06-.08-.34-.04-.57-.1-.15.04-.2.1-.3.15.26.03.19-.02.38-.01,0,.02.04.04.09.05-.7,0-1.17.02-1.72-.06-.02.02.01.05-.1.04-.34-.05-.19-.03-.57-.03.12-.09.07-.12.49-.14-.23-.07-1.09-.05-1.15-.05.27.01.49.03.57.06-.53-.04-.2.05,0,.06-.22,0-.45.02-.67.03-.28-.03-.11-.03-.09-.07-.42-.02-.18.02-.19.07-.25-.03-.56,0-.57-.03v-.11c-.49.02-.45.06-1.05.11-.04-.05.14-.06.2-.09-.67-.05-.04.09-.58.05-.02-.03.11-.03.1-.06-.19-.04-.19,0-.38,0-.1-.08-.63-.18-.18-.22-.09-.04-.17-.09-.28-.13.15.11-1.09,0-1.25.08.19,0,.12.05.38.05.01-.02,0-.06.19-.04-.17.03.11.06-.1.08-.16-.03-.43,0-.57-.06-.04-.05.17-.05.1-.11-.26-.01-.19.02-.38-.02-.06.04.12.13-.1.14.02-.05-.19-.12-.47-.19-.79-.02-1.78-.09-2.39-.15.48.08.76-.06,1.24.03-.19-.03-.46,0-.19.02.09-.04.3.04.57.03.15-.02.09-.08.1-.12-.4.04-1.18-.1-1.53-.02.14,0,.35.01.38.03-.09.05-.38-.02-.67,0,.04-.03-.28-.14.2-.12.37.09,1.21.05,1.24,0,.25.01.13.07.38.08.14-.05.62.01.96.03.05-.04-.47-.1-.19-.12,0,.02.03.04.19.04.13,0,.09-.02.19-.02,0,.02.08.02.09.04-.25,0-.19.04-.1.09-.25.01-.44-.03-.67-.02.09.03,0,.09.28.1.26.02-.06-.08.19-.06.18.03.58.04.47.1.3.01.26-.05.67-.02-.08.05.1.07.19.11-.16-.01-.26,0-.1.03.36-.04.29-.08.49-.14-.36-.04-.02.07-.38.03.21-.02,0-.05-.09-.09.61-.06,1.23.21,1.81.11-.24-.03-.3.05-.38,0,0-.02-.08-.02-.09-.04.43.04.13-.13.48-.06.11-.04-.29-.09,0-.1-.15.05.32.03.28.06-.26,0,.13.06,0,.1-.18-.04-.42-.07-.38.01.46-.01.27.05,1.05.07v-.08c-.26-.03-.35-.04-.47-.06-.05-.05.08-.14.3-.18.22.05.18-.01.48,0,.45.04.03.07.28.13.15-.05.14.05.38.04.02-.03-.09-.09.19-.05,0,.02-.12.02-.1.04l.38.02c.06-.07-.2-.09-.38-.13.15.05-.33.03-.29,0,.02-.02.11-.02.19-.02.17.02.4.03.48.06-.09.07.58.11.37.15.47.03.06-.05.29-.05.54.05.57.05.77,0,.44-.01.58.05.19.06.6.03.94,0,1.43.08.08-.03-.44-.08-.09-.09.21.04.28.05.38,0-.23-.02-.43-.05-.76-.06.06-.07-.58-.05-.28-.11-.36-.04-.02.07-.39.03.01-.05-.11-.08-.18-.12-.3-.01-.58-.03-.67-.07.21.01.3,0,.29-.03-.42,0-.26-.07-.28-.11-.12.07-.67-.04-.96.03.14.01.35.01.38.04-.47-.02.08.05,0,.08-.14-.03-.3-.03-.29.02.16.05.44-.04.67.04-.13,0-.09.02-.19.02-.15-.03-.37-.01-.57-.01-.17-.03.22-.09-.28-.11.12.08-.12.1.28.14-.82-.02-.17-.01-.76-.07-.15.07-1.01.03-1.15,0,.33-.03-.26-.11-.28-.21.63.06-.04-.13.39-.04-.24-.16-.97-.09-1.62-.11-.08.05.15.06.19.09-.42-.03.08.04-.19.02,0-.02-.17-.02-.19-.04-.27-.22.81-.08,1.25-.12-.52-.03-.52-.1-.86-.11.12-.03.54,0,.58-.04-.54.01-.24-.04-.47-.1-.36-.03-.15.05-.48.02,0-.08.16-.04.29-.08-.01-.04-.24,0-.48-.02-.04.03.14.05,0,.05-.6-.12-1.34-.04-2.1-.15.3-.02.06-.08.29-.1.15.04,1.05.2,1.14.09-.24,0-.34,0-.48-.04.4.05.02-.08.29-.07,0,.02.03.04.19.04.09-.04.11-.09.1-.11-.23.03-.11-.14-.18-.15.18.04.68.05.77.02-.83-.08-1.07-.06-1.82-.06,0-.03.02-.05.1-.06-.2,0-.51.03-.77-.02-.05.02-.1.03-.19.04-.41-.11-1.94-.03-1.62-.16l-.38-.02c-.06.03.28.08,0,.08-.35-.02-.34-.09-.86-.09.04.1-.61,0-.67-.03-.09.02-.22.04-.38.05-.33-.07-.47-.04-1.05-.11-.1.06.32.05.38.08-.17.01-.68-.03-.76-.03,0-.03.27,0,.29-.02-.3,0,.25-.04-.09-.05.05.05-.41.07-.58.02,0-.03.27,0,.29-.02-.46-.03-.45.04-.86-.02-.27.02.17.1-.2.09-.12-.04-.75-.02-.86-.07.35.01.37,0,.67.03.03-.03.19-.04.29-.05-.25-.01-.13-.07-.38-.08.05.11-.6.03-.86.05.07,0,.19,0,.19.02-.12,0-.57.02-.57,0,.08-.02.32-.04,0-.06-.03.07-.51-.02-.57-.04-.07.04-.01.07-.48.04.08-.07-.1-.05-.19-.07.02-.02.11-.02.19-.02.04.03.03.07.28.08-.14-.08-.43-.14-1.05-.16-.24.01.17.06-.1.06-.22-.07-.87-.1-.67-.03-.36,0-.25-.08-.67-.08-.09.05.25.04.28.08-.42-.03-.86-.05-.96,0-.27,0-.52-.02-.48-.07.11,0,.22.04.29.01-.2-.05-.51-.05-.86-.05.1-.05-.21-.04-.38-.05.21-.03-.05-.05,0-.1-.18,0-.32,0-.38.02.41.01,0,.08-.19.07-.12-.04.01-.03-.09-.08-.31-.03-.2.03-.38.03-.01-.04-.32-.02-.38-.01.02-.02.16-.02.19-.04-.33,0-.37-.04-.67-.04-.04.03.14.05,0,.05-.26-.02-.32-.02-.57-.07-.27.03.44.13.19.15-.3-.01-.4-.1-.76-.06v-.06c-.43-.01-.81-.03-.57-.08-.88,0-1.65-.01-2.49-.11v.08c-.17-.01-.25.02-.29,0,.26-.03.26-.09-.19-.1-.24.01.17.05-.1.06-.67-.11-1.58-.06-2.58-.13-.09.03.29.06,0,.06-.22-.03-.41-.07-.76-.09.01.04-.05.07-.19.08-.21,0-.3-.02-.29-.06.16,0,.25,0,.29-.02-.07,0-.11-.02-.09-.03-.26.01-.74,0-.67-.07-.53-.03-.19.02-.38.04-.31-.08-.77-.06-1.34-.05-.02.02.03.06-.1.06-.08-.05-.24.01-.48-.01-.19-.08.1-.06.48-.03-.15-.09-.7-.04-.96-.01-.63-.03-1.23-.14-1.82-.08.08,0,.29.06.09.05-.33-.06-1.09-.13-1.53-.09-.37-.07-.9-.06-1.44-.04v-.05c-.37,0-.52,0-.86.03-.29-.06-.59-.04-.96-.04v-.06c-.98-.01-1.87-.03-2.77-.04-.49-.01-.88-.09-1.24-.1-.06,0-.51.08-.57,0-.09.03.29.06,0,.06-1.01-.04-1.5-.05-2.49-.09-.02.02.03.06-.1.06-.03-.02-.14-.03-.09-.07-.93-.04-1.46.03-2.01-.03-.27.02.17.07-.1.08-.19-.03-.03-.06,0-.1-.43-.04-.17.06-.38.06h-.38c.17-.1-.91-.08-.57-.03.03-.04.42,0,.38.02-.19.01-1.01,0-.57-.06-.37.04-.74.04-1.05-.03-.2.03.22.11-.38.09.08-.04-.13-.04-.09-.08-.51-.02-.59.02-1.05-.05-.14.04-.23.06-.1.11h-.48c-.06-.1-.61-.11-1.24-.11-.01.03-.06.05-.19.06,0,0-.96-.1-.48-.07-.79-.04-2.06-.03-2.2.03-.16-.1-.68-.03-1.15-.07-.1.02-.16.05-.29.06-.01-.02.02-.05-.1-.05-.04.08-.3,0-.48,0-.31.03.03.08-.29.1-.2-.02-.08-.08-.38-.08-.09.03.29.06,0,.06h-.19s.02-.06.1-.08c-.76.03-1.22.04-1.82.04-.15.06.33.01.29.05-1.48-.05-2.98-.04-3.83.06l-1.15-.05c-.08.15-1.73.04-2.11.15.33.03.72-.03,1.05.01-.36.02-.51.03-.38.1-.35-.06-.32.11-.77.03-.04.03.14.04,0,.05-.24,0-.4,0-.48-.03.4,0,0-.02,0-.05.11-.01.26-.02.48-.02.01-.04.01-.08-.1-.1-.43,0-.7.01-.96.04v.08c-.56-.01-.52.08-.96.08.08.08-.12.11-.48.11-.12.09.09.13-.29.16.2,0,.09.06.29.06.01-.06.32.03.29-.02-.1,0-.23-.03-.1-.03.07.03.53,0,.57.03-.79.07-.51.22-1.34.26-.06-.03-.29-.03-.38-.05-.06-.03.12-.11-.1-.11-.1.03-.19.07-.29.1-.04-.04-.51,0-.57-.03,0,.05-.33.04-.57.05.26.08-.48.07-.48.15.37-.01.61,0,.77.03.14-.05.24-.1.48-.13.12,0,.13.02.29.01.04-.03-.14-.04,0-.05.16.05.39.05.1,0,.81,0,.53.11.96.17-.33-.03-.97,0-.76.07-.31-.03-.91,0-1.15.04-.2,0-.19-.04-.38-.05-.47.05-.71.13-1.15.19.08.07.01.06,0,.13.39,0,.42.08.77.09.16-.02.75-.06.86-.04-.29.16-.91.28-.95.43.29.02.51-.01.86-.02.28.07.07.14,0,.23-.1-.01-.36-.07-.48-.03ZM62.59,1.69s-.24.02-.48.01c-.01-.07.25-.03.48-.01ZM74.99,2.86c.15.06-.59,0-.19.06-.02.02-.17,0-.29,0,.02-.01-.04-.02-.09-.02.1-.03.29-.04.58-.04ZM74.22,3.06c.08-.04.46-.09.39-.11.15-.05.27.04.38.05-.3,0-.37.07-.77.06ZM83.95,3.75c.24.03-.85-.04-.1.03-.03.02-.24,0-.38,0,.17-.05-.17-.12.29-.08-.06-.03-.2-.04-.38-.05.26-.03.58.08.39-.04l.29.02c.14.08-.63.08-.1.14ZM86.05,5.41s.04-.07.29-.05c.03.04-.04.07-.29.05ZM2.71,3.06c.16-.03.56-.07.76-.04-.15.03-.48.05-.76.04ZM3.86,3.78c.2.04.89-.05,1.15,0-.41,0-1.5.1-1.53-.04.34-.01.55-.03.86,0-.14.04-.4.04-.48.05ZM3.47,3.23c.11-.07.52.04.76-.04-.07.05.1.06.1.1-.21-.03-.5-.05-.86-.06ZM3.46,2.26c.09,0,.07.02.1.03.24,0,.3-.03.38-.05.3.03-.22.06-.29.08-.17,0-.22-.03-.19-.06ZM3.95,3.15s.37-.02.29-.07c.18,0,.08.06.38.05.29.02-.67.02-.09.05-.15.05-.36-.03-.57-.03ZM5,3.97c.2-.03.39-.05.67-.07.03-.04-.28-.02-.29-.05-.29.01.09.03,0,.06-.08-.01-.26-.02-.29,0-.28-.01.06-.05,0-.08.14,0,.49.02.48-.02.39.08.16.03.57.05-.07.06-.18.11.19.13-.23.02-.28.06-.67.05.07.02.12.04.19.06.18,0,.24-.04.48-.03-.07.05.1.06.1.1-.26.04-.34-.05-.76-.03.09-.07-.07-.1-.48-.08.11-.03.25-.06.38-.08-.06-.05-.36-.02-.57-.01ZM5.96,3.77c-.14.07-.59,0-.76-.01.22-.05.43.03.76.01ZM6.04,1.6c-.34-.01-.01-.04-.1-.1.16.01.26.09.48,0,.18,0,.58-.02.48.03-.6,0-.61.04-.86.07ZM6.05,3.78c.09-.02.25-.03.38-.05.3,0,.39.04.57.06-.3.06-.6-.02-.95-.01ZM6.25,4.25c-.15-.06.32-.01.29-.05.14.01.21.04.19.08-.12-.02-.17-.05-.48-.03ZM6.62,3.57s.02.03.1.03c.04.04-.43,0-.29.05-.32,0-.19-.1.19-.08ZM6.52,1.92c.27-.08.46-.19.67-.25.32.1-.67.17-.19.24-.08.05-.24-.02-.48,0ZM6.9,1.61c.15-.05.56.03.57-.03.36.07-.4.08-.57.03ZM7.09.95c-.17-.01-.01-.03,0-.05.18,0,.41,0,.38.05-.18.02-.32-.05-.38,0ZM12.45,4.42c.14-.03.2-.06.29-.1.21,0,.2.04.19.08-.11.01-.26.02-.48.02ZM13.4,4.32c-.07-.04.45.01.38-.03.14.03.18.11.1.13-.29-.02.02-.09-.48-.1ZM15.31,3.55c.22.02.62.02.57.08-.25-.02-.54-.03-.57-.08ZM16.27,3.6c-.24-.04.33.03.29-.03.17,0,.22.03.19.07-.08-.01-.26-.03-.29,0-.1,0-.06-.03-.19-.03ZM16.27,4.07c.31-.01.2.04.38.05-.11.04-.51,0-.38-.05ZM16.56,3.14c.24,0,.46,0,.57.02-.11.04-.65-.04-.38.05-.17,0-.22-.03-.19-.07ZM16.74,4.45c.09-.04.37.02.67,0-.19.04-.5.03-.67,0ZM17.13,4.42c.06-.04.26-.06.57-.06,0-.08-.28-.01-.48-.05.13-.07.31,0,.57,0,.01.04.01.08-.1.1-.14,0-.27,0-.29-.02-.1.01-.1.04-.29.03ZM17.32,4.16c.18.02.58.01.48.08h-.38c-.08-.02-.13-.05-.09-.08ZM17.98,4.44s-.02.06-.1.08c-.46,0-.48-.1.1-.08ZM18.46,4.18c-.21,0-.2-.04-.19-.08.28,0,.29.07.19.08ZM20.66,4.44c.3-.03.76.05,1.05.07-.08.04-.45-.04-.48.03-.07.03-.15-.02,0-.02.02-.06-.35-.06-.57-.09ZM20.78.42c.04-.05.37-.02.57-.01-.01.04-.41,0-.57.01ZM22.28,4.55s.12-.03.29-.03c.1.02.03.06.29.05-.13.07-.39,0-.57-.02ZM33.06,4.66c-.04-.06.2-.09.38-.06-.22,0-.09.07-.38.06ZM35.45,4.49c-.34-.04.19-.05.19-.08.34.04-.19.05-.19.08ZM37.07,4.55s-.67.02-.48-.04c.13.02.36.03.38,0,.3,0-.24.04.09.05ZM37.07,4.62l.29.05c.25,0,.15-.06.29-.08.49.11-.87.1-.57.02ZM40.7,4.65c.28.02.67.02.76.07.25-.03.61-.05.38-.12.42,0,.2.05.57.03-.02.06-.56,0-.38.1-.43.03-.96-.06-1.15.02-.16-.02-.1-.07-.19-.1ZM42.23,4.38c-.06-.07.52,0,.76-.01-.15.05-.41,0-.76.01ZM44.23,4.72c-.25,0,.13-.02,0-.06.31-.01.07.05.38.04-.01.06-.37,0-.38.02ZM44.33,4.56s.24,0,.38,0c0,.04-.49.09.09.1-.24.08-.38-.05-.48-.09ZM44.9,4.61c-.07-.05.17-.04.1-.09.16.03.33.12-.1.09ZM50.34,4.6c-.14-.02.03-.02-.09-.07.15,0,.36.02.38,0,.26.03-.26.04-.29.07ZM51.11,4.5c.08-.04.24.03.48.02-.07.05.1.06.09.1-.23.03-.18-.03-.48-.03.28-.03.36-.05-.09-.08ZM52.73,4.5c-.55.03.15-.06-.28-.09.45-.05.14.08.28.09ZM52.92,4.64c.3,0,.45.03.67.05-.03.02-.17.02-.19.04-.2-.03-.48-.04-.47-.1ZM52.92,4.53c.15.06.66-.01.19-.03.02-.02.19,0,.19-.03.05.05.4.06.38.13-.23-.02-.49-.05-.48.02-.19-.02-.25-.05-.28-.09ZM53.59,4.65c-.07-.05.45.03.38-.02.02.03.06.11-.29.1-.05-.05.23-.06-.09-.08ZM53.69,4.41c.34.03.33.03.57.05-.14.08.29.08.19.15h-.38c.5-.08-.27-.12-.38-.2ZM55.31,4.51v-.05c.22.01.4.03.57.05-.14.03-.33-.03-.57,0ZM57.33,1.49c.2-.04.46.05.48.08-.22-.02-.25-.06-.48-.08ZM59.81,1.71s.71,0,.57.04c-.29,0-.35-.03-.57-.04ZM63.05,4.58c.3.02.12.05.09.08-.24-.01-.22-.07-.09-.08ZM63.24,2.19c.08-.03.59,0,.48.05-.24,0-.29-.04-.48-.05ZM63.44,2.02s.02-.06.1-.08c.24.06.47.03.76.06-.23.01-.46.04,0,.03-.13.08-.56-.06-.86-.02ZM63.81,4.61c-.18,0-.08.06-.38.03,0-.04.17-.04.1-.09.31,0,.13.06.38.06-.02.02-.1,0-.1,0ZM64.43,3.44c-.06-.09.41.04.48-.01.36.07-.3.05-.48.01ZM64.58,2.25c-.07-.07.46-.04.38.02l-.38-.02ZM64.66,2.56c.07-.01.1-.03.1-.06.12.07.87.05.86.13-.16-.04-.56-.06-.95-.07ZM64.86,4.7s.12,0,.19,0c.14-.01.1-.07.48-.03-.14.03-.26.07-.67.04ZM64.97,2.02c.23.03.18.04.48.04.03.04-.2.03-.39.03-.07-.02-.1-.04-.09-.07ZM65.32,2.99c-.13-.01-.08-.04-.09-.07.19,0,.46-.03.67.01-.13.05-.31,0-.57,0v.05ZM65.34,2.47v-.03c.08,0,.09,0,.1-.01.11.02.26.03.48.04-.14.04-.21,0-.57,0ZM65.44,2.35v-.05c.09,0,.08.02.1.04.18,0,.32,0,.38-.02.21.05-.16.07-.48.03ZM65.45,2.14c.16-.02.24-.06.58-.04.05.03-.37.02-.1.04-.09.02-.34.03-.48,0ZM65.65,1.95c.17-.04.25.05.57.04-.11.02-.09.07-.39.05.02-.04.02-.08-.19-.09ZM66.26,3.32s-.04.07-.29.05c-.1-.05-.11-.07.29-.05ZM66.18,2.83c-.26-.05.34-.05.48-.06.23.01-.11.04-.1.06-.08,0-.09-.02-.19-.02-.09,0-.17,0-.19.02ZM66.2,2.51s.4-.01.48-.04c.25.04-.15.07-.48.04ZM66.54,3.4c.05-.02.14-.03.19-.06.32.02.18.09-.19.06ZM66.86,2.72c.37-.04-.09-.08.1-.13.27.04.36.12.18.17-.13-.01-.15-.04-.29-.05ZM66.97,2.3c-.18-.04.29.02.38-.02-.07-.04-.2-.07-.19-.12.44.03.39,0,.29-.05.1.01.1.04.29.05-.08.01-.1.03-.1.06h-.29c.08.03.12.08.09.14-.08-.01-.26-.04-.29-.01-.1,0-.06-.04-.19-.04ZM67.33,2.8c.11-.08.99,0,1.34.01-.05.06-.51-.04-.58.04-.29-.05-.27-.03-.76-.05ZM67.45,2.44c.15-.06.35-.11.87-.09-.4.05-.23.07-.87.09ZM67.52,2.96c-.03-.07.33-.06.58-.07.14.03-.39.06-.58.07ZM67.56,2.07s.54.03.67.05c-.15.04-.57-.02-.67-.05ZM67.54,4.61c.18-.02.17.02.48.02.07.05-.19.02-.19.06.53.03.33-.01.77-.01,0,.03-.26,0-.19.06l-.76-.03c.26-.03-.22-.03-.09-.09ZM67.62,2.74c.21-.02-.05-.05,0-.1.28.04.67.12,0,.1ZM67.88,3.33c.2-.04.39,0,.67,0-.04.02-.17.02-.19.04-.23,0-.21-.04-.48-.04ZM68.06,3.58c-.22-.03.2-.06.29-.08.1.07.57,0,.76.05-.2.04-.99-.04-1.05.03ZM68.59,2.49s.37.03.28.08c-.45-.03-.14,0-.19.06-.26-.02-.19.03-.29.04-.09-.02-.35-.02-.28-.06.45.08.28-.1.49-.12.11,0,.05.02,0,.02ZM68.16,3.63s.32,0,.29-.04c.13.01.08.04.09.07-.2,0-.25-.02-.38-.03ZM68.84,3.36s.07-.04.1-.06c.21.03.03.1.47.1-.12.06-.33-.03-.57-.04ZM69.65,2.47c-.18,0-.41-.07-.38,0-.13-.01-.08-.04-.09-.07-.01-.02-.17-.02-.29-.03.14-.05.97.08.86,0,.17,0,.2.03.38.03-.02.02-.17,0-.29,0-.17,0-.22.02-.19.06ZM69.5,3.6c-.22-.02-.17-.09-.47-.13.32.01.68.02.67.08-.43-.05-.2,0-.19.06ZM69.55,2.56c-.14-.01.04-.02,0-.05.86.1.75.09,0,.05ZM69.64,4.74c.07-.05.29,0,.48.02-.06.02-.21.02-.38.02.02-.02-.02-.03-.09-.04ZM72.31,4.85c.12-.02-.17-.04,0-.1.09.02.3.1.47.06.23.02.21.07.28.11-.4,0,.03-.09-.38-.08-.25,0,.13.03,0,.06-.45,0-.75-.02-1.34-.05-.16-.04,0-.02,0-.06-.27-.01-.12.07-.48.04.14-.04-.42-.07-.29-.01-.17,0-.2-.03-.38-.03-.03-.04.02-.06.1-.08.36,0,.27.05.57.06.18,0,.06-.05.19-.06.11,0,.08.03.09.05.17,0,.13-.06.48-.02.02.05-.31.05-.1.09.32,0,.44-.06.76.02ZM70.46,3.42c.13-.03.72.04.77-.01.3.05.12.06.48.04.07.02.1.04.09.07-.21-.03-.88-.06-1.34-.1ZM70.51,2.51c.1-.02.1-.06.2-.07.24-.01.3.08.38.03.13.01.08.04.09.07-.11-.04-.45,0-.19.02-.15.04-.25-.05-.48-.05ZM70.98,2.65c-.28-.04.16-.05.38-.03v.05c-.22.01-.36-.06-.38-.02ZM71.46,2.6s.26,0,.19-.06c.14.05.54.06.66.11-.3.01-.43-.05-.86-.06ZM71.54,2.87c.13-.01.06-.07.2-.09.24.04-.09.05.09.1h-.29ZM72.05,2.29c.41-.04,1.04.07,1.34,0,.12,0,.09.04,0,.03.02.02.1.01.1,0,.35.08-.5.07-.2.15-.44-.02-.02-.07-.09-.12-.02-.01-.09-.02-.09-.04-.33.02-.74,0-1.05-.04ZM72.19,3.32s.14-.05.38-.03c.03.04-.14.05-.38.03ZM72.88,2.9c.33.01.54.14.09.1.07-.05-.16-.06-.09-.1ZM72.96,3.34c.02-.05.22-.06.2-.12.2.03.13.15-.2.12ZM74.04,2.85c-.2-.04-.76-.02-1.05-.08.24-.07.58.06,1.15.06.16.06-.46.06,0,.08-.05.01-.1.02-.1.04-.08-.01-.17-.03-.19,0-.13-.01-.08-.04-.09-.07.16,0,.25,0,.29-.02ZM74.41,2.94c-.16.01-.12.07-.48.04.02-.04.17-.06.48-.04ZM73.36,4.93v-.05c.16,0,.18.02.19.04.14,0,.14-.05.19-.07.27.05.84.06.85.14-.18-.02-.24-.05-.47-.06.25.08.09.1.57.14-.14.06-.49-.03-.76,0,.25-.03.19-.02.2-.09-.21-.01-.33-.06-.76-.05ZM73.5,4.07c.08-.04.24.03.48.02-.02.01-.1.01-.1.03.2.02.18-.01.19-.04.11.03.37.07.19.09-.12-.03-.41-.04-.67-.05,0-.02.02-.05-.09-.05ZM73.62,3.57c.08-.02.08-.06.38-.03.09.03-.29.04,0,.06-.03.04-.25-.03-.38-.04ZM74.07,4.03s.32-.02.2-.09c.28.04.1.06.09.12-.08-.01-.15-.02-.29-.03ZM74.26,4.07c.08.02.21.03.38.03v.06c-.26-.02-.32-.06-.38-.1ZM74.57,3.58s.12.04.09.07c.18.02.32-.03.38.02-.02.08-.38-.02-.67-.02-.06-.03.28-.05,0-.08.38,0,.54-.04.96-.03-.08.05-.46.04-.77.04ZM74.88,3.28s.34,0,.48,0v.06c-.21,0-.18-.03-.19-.06h-.29ZM75.93,3.3c-.11,0-.26,0-.48,0-.05-.09-.15-.1-.09-.17.35.01.53.04.76.07-.08.03-.34.02-.48.04.12.03.38.04.38.08-.05.02-.1,0-.1-.02ZM75.64,3.35c.32.04.25.03.47.07l-.58.02c-.24-.05.2-.02.1-.09ZM76.14,4.7c.22,0,.1.05.28.06.18-.02-.31-.11.29-.08-.13.04.02.05,0,.11-.32-.02-.64-.03-.57-.1ZM77.68,4.65c-.12-.05.28-.05,0-.08.02-.02.17,0,.29,0-.02.01.04.02.09.02-.28-.01-.05.09-.39.06ZM77.96,4.73c-.17.05.06.04.09.1-.33,0-.45-.13-.09-.1ZM78.53,4.81c-.21-.03.09-.08.29-.07.1.07-.2.04-.29.07ZM79.2,4.74c.11.01.24.04.09.04.01.02.17.02.29.03.03.04-.2.03-.38.03-.21-.05-.21-.07,0-.1ZM79.1,4.88s.57.03.47.07c-.09,0-.22,0-.38,0,0-.03.05-.06-.09-.07ZM79.64,3.71c-.14-.03-.15-.07-.28-.1.01-.03.32,0,.29-.03.28.04.03.05.19.09l.67.04s-.17.03,0,.05c-.17.01-.5-.06-.86-.05ZM79.67,4.86c.08-.02.31,0,.48,0,.1.04.45.09.18.12-.62-.03-.23-.08-.66-.12ZM79.87,4.74c.12-.02.2.05.48.03.03.07-.44.02-.48.07-.4-.08.29-.06,0-.1ZM79.97,4.68c.42-.01-.36-.12.29-.1-.28.03.14.08.19.03.18.04-.15.11-.39.11.02-.02-.02-.03-.09-.04ZM81.97,4.92c.43.04.95.07.95.15-.05-.05-.54-.05-.57-.1-.09.04-.05.04-.29.03-.2-.04.07-.04-.09-.09ZM81.48,4.99c.11-.02.11-.03,0-.06-.14.03-.65-.02-.67.04-.28-.02-.18-.09-.38-.12.24-.04.96.02,1.06-.06.2.03.19.08.47.09-.15.04-.09.12-.48.1ZM81.13,4.45c.12-.03-.01-.03.1-.08.32.02.09.1.28.13-.06.04-.18-.05-.38-.05ZM81.37,3.68s.83-.01.76.04c-.36-.05-.41,0-.76-.04ZM81.89,4.51c.13-.04.52,0,.76.03-.18.04-.39-.01-.76-.03ZM83.22,4.84l-.48-.03s-.16-.04,0-.06c.09,0,.07.02.09.04.17.01.2,0,.38,0,.02-.02-.02-.03-.09-.04.31-.03.11.05.09.09ZM83.49,5.09c-.05-.02-.09-.05-.19-.11.37.08.34.04.86.05.04.05-.24.04-.38.01.07.05-.1.05-.1.09-.18,0-.05-.1-.19-.04ZM83.96,3.54c-.18-.07.36-.07.48-.09.13.01.08.05.09.07-.29-.02-.49-.01-.58.02ZM83.89,4.84c.16-.02,0-.02,0-.06l.38.02c-.5.03.39.06.09.1-.11-.02-.17-.06-.47-.06ZM84.64,5.07c-.34,0,.1.09-.39.06-.02-.05.17-.06.1-.12.36.04.27-.02.57,0-.28.02.3.16-.29.13-.16-.04,0-.02,0-.06ZM84.9,3.9c.13.05.25-.03.48,0-.14.05.43.03.28.08-.33-.05-.72-.04-.48.04-.29-.04-.52-.08-.66-.14.42.05.25-.04.58-.02,0,.03-.07.04-.19.04ZM85.6,4.9c-.1,0-.01.05-.2.07-.25-.06-.29,0-.57-.02-.04-.02-.08-.03-.19-.04.17-.05.84.02.87-.06.32.03.62.06.95.09,0,.02-.57-.01-.1.03-.13.05-.69,0-.76-.06ZM84.81,3.72s.45-.01.57.02c-.01.04-.41-.02-.57-.02ZM85.1,5.34s.32-.01.57,0c-.03.06-.34.03-.57,0ZM85.12,5.1s.07-.04.1-.06c.13.01.15.04.28.05.01-.04-.16-.04,0-.06.33.03.4,0,.57.03-.16.05-.15.01,0,.08-.43,0-.59-.04-.95-.04ZM86.48,4.71c.26.03.19-.02.38,0,.02-.03-.34-.03-.48-.05-.08-.06.51,0,.57.02-.18.05.05.08.38.07,0,.05-.3.03-.2.1-.12-.04-.54-.12-.57-.04-.33-.13-.32.05-.57-.08-.12,0-.2,0-.19.04-.17-.02-.33-.05-.28-.1.16.04.51.03.29-.02.08,0,.43.04.67.06ZM85.63,4.5c.06-.02.22,0,.19.03.15,0,.08-.05.38-.01.03.04-.02.06-.1.08l-.29-.02c-.13-.02-.01-.06-.19-.08ZM86.05,3.81c.08-.01.13-.04.1-.08.2,0,.25.03.38.04-.1.04-.38,0-.2.07-.08-.01-.15-.03-.29-.03ZM86.08,5.04s.17-.03.38,0c-.01.03.11.04.09.07-.31,0-.29-.04-.47-.06ZM86.24,3.9c.25-.05.98.04.95.09-.4-.01-.54-.05-.67-.09-.08,0-.16,0-.29,0ZM86.35,5.17c-.28-.03.09-.03,0-.06.24.02.49.03.47.08-.15,0-.16-.03-.28-.03-.09,0-.17,0-.19.02ZM86.39,4.53c.29.04.3.07.09.09-.24-.02-.22-.07-.09-.09ZM86.55,3.58c.55.02,0-.08-.09-.15.35.04.68.07,1.05.11.12,0,.13-.04,0-.05.02-.02.28.01.29-.01.05.03.39.14.38.04.38.04-.03.03,0,.08.02.04.26,0,.38.04.04-.03-.07-.03-.19-.04.08-.02.31,0,.48,0-.04.09-.6.07-1.06.06.05.02.1.03.09.05.12.03.36.05.47.08-.39.03-.75-.08-.66-.15.09,0,.22,0,.38,0-.03-.02-.17-.04-.19-.06-.09.05-.64,0-.96,0,.06.02.22.03.19.06.11,0,.08-.02.1-.04.2,0,.25.03.38.04-.17-.05-.32.08,0,.05-.39.04-.65-.02-1.05-.11ZM86.53,3.82c.05,0,.1-.02.1-.04.25.01.24.05.28.08-.2,0-.25-.03-.38-.04ZM86.67,3.13s.37-.03.29.02c.08,0,.1-.01.19,0,.05-.05-.24-.06-.38-.09.14-.04.37.04.67.04-.18.08.34.07.38.09-.06.06-.92-.03-1.15-.05ZM86.94,5.06c-.03-.07.44-.02.48-.07.41.04.31.03.67.06-.09.05-.28,0-.57-.02-.07.04.2.04.28.07-.28.01-.59-.04-.86-.04ZM86.84,5.12c-.41-.07-.02-.14-.18-.22.09,0,.07.02.09.04.17.01.2,0,.38,0-.06.01-.12.02,0,.03-.46,0-.14.1-.3.14ZM86.71,4.03c.05-.05.5,0,.38.06-.12-.02-.26-.04-.38-.06ZM87.06,4.52s.14-.04.38-.03c.03.04-.14.04-.38.03ZM87.41,5.12c.42.07.45-.03.96.01,0,.03.07.05.19.06-.22.01-.18.02-.1.08-.24,0-.55.02-.67-.04-.12,0-.13.04,0,.05-.33.03-.62-.07-.66-.12.47.03.31.05.29-.03ZM87.15,4.61c.09-.04.66-.02.77,0-.17.02-.35.04-.77,0ZM87.29,3.95c.37-.05.49.05.66.12-.31-.03-.32-.09-.66-.12ZM87.72,4.8c-.24-.07.39-.04.67,0-.14.03-.2.02-.1.07-.2-.01-.45-.1-.57-.07ZM88.16,5.33s.42.03.47.06c-.07.05-.38-.03-.76-.03.19-.01.29-.04.39-.07.23.02.02.05-.1.04ZM88.19,4.96c.23.03.39.07.47.11-.22.02-.52-.05-.47-.11ZM88.59,4.69v-.05c.31.04.59-.01.77.05-.06.03-.3.03-.77,0ZM88.64,5.33c.19,0-.05-.1.29-.06.02.05,0,.09-.29.06ZM89.31,5.37c-.08.04.13.05.09.09-.34-.01-.56-.12-.09-.09ZM89.15,4.84c.48.04.42-.04.86-.04.15.06-.38.08-.58.11-.22,0-.1-.05-.28-.07ZM90.63,4.12s.12,0,.19,0c-.06-.03-.2-.04-.38-.06.06-.02.21-.02.38,0-.06-.04-.48-.03-.38-.09-.09.02-.46.07-.29.1-.41.03-.22-.15-.76-.16-.04-.04.07-.04.1-.06.23,0,.44.11.48.03.34.06.57.04.86.1.11,0,.08-.02.1-.04.33.09,1.4.04,1.62.15.09-.06.47.02.48-.03.5.09.93.03,1.62.12-.02.01-.1,0-.1.03-.08,0-.09,0-.1,0-.26-.1-.53,0-.86-.02-.17-.06-1.05-.11-1.34-.07.2,0,.8.04.85.14-.17,0-.2-.03-.38-.04.04.03.3.03.19.08-.46-.02-.33-.11-.66-.14-.08.04-.28.04-.29.09-.24,0-.46-.09-.09-.05.03-.03-.53-.06-.38,0-.16-.06-.12-.05-.38-.07-.15,0-.2.04-.48.02ZM90.16,4.11s.26.04.19.08c-.2,0-.25-.03-.38-.04-.01-.04.15-.04.29-.05.15.02,0,.02-.1.01ZM90.02,3.26c.23-.08.46.08.57.12-.52,0-.09-.11-.57-.12ZM90.01,4.91c.17,0,.2.03.09.02.11.06.37,0,.48.05-.08.02-.24.02-.48,0,.01-.03-.11-.04-.09-.07ZM91.63,3.46s.57-.09.58,0c-.38-.05-.2.04-.58,0ZM99.79,4.79c.05-.05.37,0,.57.02-.01.03-.41-.02-.57-.02Z"/>
      <path class="cls-1" d="M90.18,5.18v-.06c.23.02.21-.02.48.01.19.05.13.14.37.19-.04.01-.56-.06-.66-.09-.07-.05.33,0,.2-.07-.36-.05-.02.07-.38.02Z"/>
      <path class="cls-1" d="M3.48,4.2s.04-.02.1-.02c-.11.02.47-.01.48.08h-.67c.12-.02.47-.04.09-.06Z"/>
      <path class="cls-1" d="M34.2,4.81c.06.02.22.02.19.05h-.48c-.06-.06.61-.1.29-.05Z"/>
      <path class="cls-1" d="M44.32,4.92c.15-.02.71-.05.95,0,.06,0-.79.03-.95,0Z"/>
      <path class="cls-1" d="M47.66,4.87c.14-.07.3.01.48.03-.07.06-.78-.01-.96.02-.3-.05.57-.02.76-.03-.02-.02-.17-.02-.29-.02Z"/>
      <path class="cls-1" d="M53.38,5.01c-.23-.02.21-.04.38-.04.05-.03-.14-.04-.28-.04.36-.01.8,0,1.05.05-.21.02-.65,0-.67.06-.22,0-.41-.07-.48-.03Z"/>
      <path class="cls-1" d="M55.14,1.17c-.27-.05.6.06.57.02.33.06-.56.01-.57-.02Z"/>
      <path class="cls-1" d="M57.15,1.22c-.07-.07.43.03.67,0,.4.03-.34.03,0,.05-.37,0-.96-.04-1.91-.09.13-.05.39.02.58-.03.24.02.54.04.67.07Z"/>
      <path class="cls-1" d="M60.17,4.87s.08.03.19.04c-.24,0-.71,0-1.15-.03.12-.05.84.02.96-.03.11,0,.05.02,0,.02Z"/>
      <path class="cls-1" d="M60.17,4.82c.11-.07.87.04,1.43.03.07.05-.19.02-.19.06.21.01.3,0,.29-.04.34.05.6.03.95.09-.29.07-.75-.07-1.05-.04-.04.03.07.03.19.04-.13.03-.68-.03-.86-.08-.18,0-.32,0-.38.02-.15-.01-.08-.05-.38-.05.02-.01.1-.01.1-.03-.08,0-.09,0-.1.01Z"/>
      <path class="cls-1" d="M63.42,4.87c-.19-.04.56.02.67.04-.24.05-.36-.05-.67-.04Z"/>
      <path class="cls-1" d="M74.72,2.62c-.09.04-.07-.05-.38-.04-.01.03.11.04.09.07-.08,0-.09-.01-.09-.02-.02-.02-.19-.03-.19,0-.21,0-.04-.06-.09-.09.13.04.67.03.67.08Z"/>
      <path class="cls-1" d="M74.05,2.52c.61.05,1.36-.03,1.63.06-.6-.05-.5.02-.58.05-.35-.05-.69-.11-1.05-.12Z"/>
      <path class="cls-1" d="M75.96,2.6c.32-.04.97.07.96-.01l.57.03c.1.07-.46.08.18.12-.1.03-.6-.03-.86-.03.02-.02.29,0,.29-.02-.17-.06-.46,0-.76-.04.34.05.27.12,0,.11.02-.06.07-.1-.37-.17Z"/>
      <path class="cls-1" d="M76.58,1.87c.46-.02.95.09,1.53.11,0-.06-.6-.05-.67-.1.54.03,1.24.07,1.72.16-.39-.03-.9-.12-.96-.02-.74-.04-1.15-.11-1.62-.15Z"/>
      <path class="cls-1" d="M77.55,3.35c-.51-.03-.49-.12-.85-.16.2-.03.53.05.86,0,.23.09.04.08,0,.16Z"/>
      <path class="cls-1" d="M76.88,3.36c.11,0,.08.03.09.05.3,0,.42-.03.76.02-.02.07-.45-.04-.38.03-.26-.02-.75-.07-.47-.11Z"/>
      <path class="cls-1" d="M79.41,2.59c-.12.02-.47-.02-.48.02-.27-.04-.76-.1-.86-.03-.26-.02-.17-.08-.38-.1-.01-.02.49,0,.19-.04.03-.04.16.03.38.02-.04.1.42.05.67.1.02-.04.49-.05.57.01.18,0,.06-.05.19-.05.57.07.8.04,1.43.11-.16,0-.64,0-.19.05-.02.04-.24-.03-.48-.03.53.09-.62-.02-.67.03.21.05.79.02.47.09.29.03.17-.03.19-.05.54.12,1.48.04,1.91.14.13,0,.08-.04.1-.06.14.02.37.03.28.08.5-.04.59.08,1.34.08-.26-.06.07-.09.1-.14.19.01.12.05.38.05-.38,0-.28.04-.1.11.2,0,.18-.07.58-.03-.27.03-.08.04,0,.1-.88-.1-2.19-.04-2.77-.18-.56.03-1.76,0-2.29-.13-.28,0-.11.02-.1.06-.53-.1-1.03-.04-1.34-.1-.12.04-.59,0-.67.01-.19-.05.67-.01.68-.08.29.07.79.05,1.15.06.02-.08-.34-.04-.48-.07-.25-.05.38.06.19-.04Z"/>
      <path class="cls-1" d="M77.72,3.84s.02-.06.1-.08c.3,0,.25.06.47.07-.13.04-.32.03-.57,0Z"/>
      <path class="cls-1" d="M78.56,4.15v-.03s.29.02.29.02c-.02.01-.1.01-.1.03.22,0,.37.02.48.04,0,.05-.15.11.09.09.36.08-.36.07-.48,0,.02-.02.17,0,.29,0-.17-.05-.23-.11-.57-.14Z"/>
      <path class="cls-1" d="M78.76,3.98c-.19-.02.23-.04.29-.07.03-.04-.37-.03-.28-.08.27.03.25,0,.48,0,.16.08-.03.12.28.18-.03.02-.17.02-.19.04-.04-.02-.09-.07-.47-.09-.08,0-.09,0-.1.01Z"/>
      <path class="cls-1" d="M80.82,3.09c-.37-.02-.04.01-.1.04-.36-.06-1-.03-1.53-.07-.21-.01-.04-.07-.09-.1.44.02.52.02.86.03v.05c.23-.03.42-.02.67-.01-.06-.02-.22-.03-.19-.06.54,0,.34.11.47.12-.02.02-.1,0-.1,0Z"/>
      <path class="cls-1" d="M80.09,2.53c-.35-.03-1.01-.02-.95-.1.17.01.48,0,.38.05.18-.01.28-.05.58-.03-.08-.03-.33-.05-.47-.07.08-.02.24-.02.48,0,.31.09-.16.09,0,.16Z"/>
      <path class="cls-1" d="M80.52,3.41c.07-.01.31,0,.67.02-.52,0,.01.05.19.01,1.12.08-.29.05-.67.04-.13-.02-.01-.06-.19-.07Z"/>
      <path class="cls-1" d="M80.91,4.92c-.5-.06.5-.09.67-.04-.2.02-.61,0-.67.04Z"/>
      <path class="cls-1" d="M82.5,2.27c-.11,0-.05-.02,0-.02-.35-.06-.68-.04-.96-.06-.03-.03.08-.03.19-.02-.24-.06-.76-.04-.77,0-.18-.03.11-.07-.09-.12.88.09,1.15.06,1.91.16-.03.03-.26.02-.29.05Z"/>
      <path class="cls-1" d="M81.69,3.1c.1-.04.56.04.29.05h.19c-.12.05-.38-.03-.48-.05Z"/>
      <path class="cls-1" d="M82.38,2.67c-.2-.05.34.03.57.03.08.02.05.05.19.06-.18.01-.32-.02-.48.02-.47-.03.21-.09-.28-.11Z"/>
      <path class="cls-1" d="M82.83,3.22c-.3,0-.03-.08-.38-.09.78-.01,1.05.07,1.91.08-.33.11-1.13-.06-1.53,0Z"/>
      <path class="cls-1" d="M83.26,4.07s.56.02.67,0c.21.04-.38.03-.67,0Z"/>
      <path class="cls-1" d="M83.43,2.83s.04.02.09.02c-.44.01.11-.06.29-.06.26.04-.26.04-.39.04Z"/>
      <path class="cls-1" d="M86.8,5.78s.1,0,.1,0c.1,0,.1-.03.29-.01.16.04,0,.02,0,.06l-.29-.02s-.02-.03-.09-.04Z"/>
      <path class="cls-1" d="M90.07,5.53c-.45-.04.57-.03.1-.14.23.07.5.14.56.23-.31-.02-.41,0-.76-.03.09-.02.35,0,.39-.04-.04-.02-.08-.03-.19-.04-.09,0-.08.02-.1.03Z"/>
      <path class="cls-1" d="M90.03,3c.43.05.11-.08.58-.03,0,.02-.12,0-.19,0,.07.04.54.04.47.09-.11-.02-.25-.04-.48-.05-.09.06.33.09.18.14-.08-.01-.15-.03-.29-.03.28-.06-.3-.06-.28-.13Z"/>
      <path class="cls-1" d="M90.83,5.61s.12-.06.2-.08c.35.06.5.05,1.05.08.01.04-.08.05-.29.03-.02.01.04.02.09.02-.25-.03-.79-.03-1.05-.05Z"/>
      <path class="cls-1" d="M91.81,3.7v-.05c.21.04.39-.02.86.04-.02.02-.18,0-.29,0-.02.01.04.02.09.02-.12,0-.31,0-.67-.01Z"/>
      <path class="cls-1" d="M92.26,5.58c-.08,0-.09-.02-.19-.03-.02-.03.09-.02.1-.04.09,0,.07.02.09.04.19.01.12-.04.38,0v.05c-.24-.02-.3-.05-.39,0Z"/>
      <path class="cls-1" d="M92.1,5.09c.31.01,1-.03,1.14.07-.49,0-.62-.06-1.14-.07Z"/>
      <path class="cls-1" d="M92.56,5.38c.17-.04.37.09.38,0,.12.03.54.04.28.07.38,0,.64,0,.86,0,.04.05-1.27.04-1.53-.08Z"/>
      <path class="cls-1" d="M93.07,3.52c.08,0,.09.01.09.02-.02.02.53.04.39-.02.1.01.06.04.19.04.29,0-.09-.04,0-.06.35,0,.09.08.28.1.36-.01.25.04.67.06-.3.01-1.47-.02-1.62-.14Z"/>
      <path class="cls-1" d="M93.38,3.21c.25.02.56.05.58,0,.2.02.2.04.09.05.63-.02,1.01.03,1.62.09-.5,0-1.09-.02-1.72-.08-.02.02.02.03.09.04-.07.01-.65-.06-.66-.11Z"/>
      <path class="cls-1" d="M95.36,5.11c-.23-.04.11-.05-.09-.07.22,0,.83.02.76.08.15,0,.09-.05.38,0-.07.07-.76-.02-1.05,0Z"/>
      <path class="cls-1" d="M95.92,3.95c.34.03.11.11.47.13-.11.05-.6-.06-.47-.13Z"/>
      <path class="cls-1" d="M96.31,3.77c-.18.04-.45-.05-.38-.09.16,0,.18.02.19.05.08,0,.09,0,.1,0,.3.02-.25.03.09.06Z"/>
      <path class="cls-1" d="M97.58,3.53c-.38,0-.26-.1-.37-.19.73.04,1.65.09,2.1.11-.35.07-1.85-.05-1.73.08Z"/>
      <path class="cls-1" d="M98.14,3.67c-.19-.05.39.04.48.07-.01.06-.31-.06-.29,0-.14-.01-.03-.05-.19-.06Z"/>
      <path class="cls-1" d="M100.06,3.73c-.13-.14-.98-.07-1.91-.18.21-.05.75.07.86.01-.02-.06-.36.02-.38-.04,1.11-.03,2.18.19,3.15.19.21.01.3.04.28.07.62-.01,1.45.08,2.29.13-.82-.01-2.84-.09-3.82-.26-.3,0-.42.03-.49.08Z"/>
      <path class="cls-1" d="M100.81,3.97c-.14-.02.04-.02,0-.05-.26-.03-.19.02-.29.03-.1-.01-.06-.04-.19-.05.06.04-1.17-.03-1.05-.09-.41-.04-.31.04-.77,0,.1-.05.37.01.2-.08.52.03.78.08,1.14.13.22.02-.03-.05-.19-.05-.01-.03.63.01.48.05.22-.07.72.04,1.24.04.13.07-.21.04-.2.08-.13-.03-.35-.05-.38-.01Z"/>
      <path class="cls-1" d="M104.4,4.75c-.09,0-.15.02-.19.03.09-.09-.61-.06-.76-.15-.08,0-.1,0-.19,0,.22.07-.49,0-.2.1-.39-.07-.18-.1-.37-.19.36.03,1.24.14,1.43.09.06-.07-1.19-.16-1.15-.08-.4-.05-.17-.07-.09-.12.11.04,1.31.13,1.43.07.18.08.05.15-.11.17.86.04,2.02.15,3.05.23.22.02.68,0,.67.08-1.26-.03-2.42-.25-3.44-.18-.37-.02-.03-.02-.09-.06Z"/>
      <path class="cls-1" d="M103.8,3.74c.29.03.35,0,.58.03.18.12.4.01.86.06-.3.06-1.22.04-1.43-.09Z"/>
      <path class="cls-1" d="M105.7,4.03c.28.07-.58-.08-.38,0-.44-.04-.51-.05-.86-.08.28-.08.75.05,1.24.08Z"/>
      <path class="cls-1" d="M105.04,3.92c.29.03.35.01.57.03.1.02.03.06.28.07.22,0-.11-.03.1-.04.12.02.15.04.28.05-.22-.06.22,0,.58.01-.02.03-.24.02-.48,0,.08.03.3.07.09.09-.14-.03-.14-.09-.29-.04-.22-.1-1.12-.08-1.14-.17Z"/>
      <path class="cls-1" d="M107.41,4.24c.14.01.27.02.29,0,.1.01.06.04.19.05.1,0,.07-.03.19-.02-.37-.06,0-.08-.47-.12.01-.02.02-.04-.09-.06.03-.07.35.05.48,0,0,.05.1.18,1.04.26-.17.07-.75,0-1.25.02-.49-.07-.06-.03-.37-.14Z"/>
      <path class="cls-1" d="M108.57,6.59v-.05s.29.02.29.02c.02.03-.09.02-.1.04h.19c-.07.06-.2-.02-.38-.01Z"/>
      <path class="cls-1" d="M109.42,4.32c.15-.05.73.11.58,0,.18.05.35.03.57.05-.02.08-.85,0-1.15-.04Z"/>
      <path class="cls-1" d="M109.98,4.54c-.24-.02.13-.02,0-.06.32.01.35.06.38.1-.17.04-.29-.07-.38-.03Z"/>
      <path class="cls-1" d="M114.86,4.79c.14.05.23,0,.48.06.13,0,.08-.03.1-.06.33.03.63.09,1.05.1,0,.02-.12,0-.19,0-.12.04.31.04.18.08-.79-.07-1.89-.2-2.2-.12-.24-.02-.46-.04-.57-.06.11-.04.01-.04,0-.1-.25-.03-.34-.02-.29.03-.08,0-.09-.01-.09-.02l-.19-.02c.26-.1,1.29.07,1.72.04.12.02.15.04.28.06-.04.02-.12.02-.29,0Z"/>
      <path class="cls-1" d="M113.76,5.31c.36.17.81.07,1.04.2.24,0,.43.02.67.02-.03-.02-.42-.08-.38-.05-.19-.04.25-.04.48,0,0-.06-.25-.02-.28-.09-.21-.02-.3-.01-.29.02-.27-.08.25-.1.49-.11.26,0,.19.05.38.06.18-.03,2.03.11,2.19.2.33.02.48-.04.57.05.2.01.19-.03.29-.04.32.04.62.08.95.12.67-.04,1.74.24,2.58.19.22.07.54.08.86.08.38.09-.55.02-.29.07,0,.04-.26-.06-.19.02-.76-.17-2.14-.17-2.57-.31-.56.05-1.18-.07-1.91-.13-.57-.05-1.16.01-1.33-.13-.16.04-.27.02-.67,0-.05.03.13.04.28.06-.24,0-.32.04-.67,0,.25.08,1,.05,1.43.07-.26,0-.29.06.19.08-.01.02-.02.04.09.06-.17.03-.63-.02-.96-.03.03-.03.17-.02.38,0-.22-.09-.54.02-.76-.06-.26,0,.29.06,0,.06-.69-.15-1.13-.17-2.28-.24.08-.07-.2-.1-.47-.14-.08-.06.15-.04.2-.07Z"/>
      <path class="cls-1" d="M113.72,5.81c.23-.09.95.04,1.44.02.28.15,2.11.13,2.66.29-1.72-.14-2.92-.25-4.1-.31Z"/>
      <path class="cls-1" d="M116.45,5.31c-.63-.07-1.79-.09-2.19-.22.15.04.75.1.67.02.3.06.58.01.66.09.36.02.53,0,.58-.06.33.05.43.03.76.08-.18.1.92.09,1.23.18-.05,0-.1.02-.1.04-.63-.03-.84-.08-1.24-.09-.18,0-.05-.1-.19-.05-.36-.06.21,0,.2-.03-.22-.06-.61-.03-.39.03Z"/>
      <path class="cls-1" d="M114.34,5.25v-.03c.08,0,.16,0,.29,0v.06s.18.02.18.02c-.15.04-.23-.05-.47-.06Z"/>
      <path class="cls-1" d="M116.13,7.87c-.16-.1.51.02.48-.04.15.03-.17.08-.48.04Z"/>
      <path class="cls-1" d="M116.58,4.92c.42-.03.9.08,1.43.09-.36.04-.84-.04-1.43-.09Z"/>
      <path class="cls-1" d="M119.92,8.4s.45.01.67.06c-.11.04.02.04-.1.07-.31-.03-.3-.09-.56-.13Z"/>
      <path class="cls-1" d="M123.83,5.5c-.24-.02-.3,0-.48-.01.39.07-.03.08-.29.07.27,0-.16-.08.1-.07-.18-.07-.65-.1-.86-.11-.08-.09,1.36.07,1.91.15-.01.02-.02.04.09.06-.2.04-.45-.02-.58-.02-.24-.05.08-.05.29,0-.06-.02-.22-.04-.19-.07Z"/>
      <path class="cls-1" d="M124.82,6.17c-.14,0-.3,0-.29.04-.06-.05-.36-.08-.37-.13.15,0,.77.07.85.13.11-.01.28-.01.29-.05.65.08,2.1.25,2.57.25.26.06.4.07.47.11-.18-.05-.7-.02-.76-.1-.79-.04-2.13-.14-2.76-.24Z"/>
      <path class="cls-1" d="M124.4,5.55c.14-.07.66.03,1.05.08.01.02-.02.03-.1.02.08.03.24.06.47.08.15-.05-.43-.04-.28-.09.32.04.6.08.66.14-.26.02-.76-.1-.86-.03-.02-.03-.45-.16-.09-.12-.15-.05-.67-.07-.86-.08Z"/>
      <path class="cls-1" d="M128.12,6.87c.57.06,0,.05-.1.04-.47-.05-.35-.03-.86-.06-.69-.04-1.68-.17-1.81-.13,1.03.13,2.28.24,3.33.34,1.17.11,2.14.2,2.96.25-.35-.07-1.14-.09-1.33-.21-.02.02.01.05-.1.04l-.38-.04c.13-.03,0-.03.1-.07-.42.02-1.26-.14-1.81-.16ZM129.54,7.08c-.3-.02-.34-.07-.18-.08.16.03.36.07.18.08Z"/>
      <path class="cls-1" d="M128.07,7.4l-.48-.05c.27-.02.58-.01.96.04-.09.05-.53-.06-.48,0Z"/>
      <path class="cls-1" d="M128.23,5.74s-.32-.03-.38-.04c.06-.03.45.03.48,0,.45.07-.46,0-.1.04Z"/>
      <path class="cls-1" d="M128.23,6.76c-.27-.09.31-.09.96,0-.05,0-.1.02-.1.04.11.04.5.06.66.1.25,0,.3,0,.2-.06.39.02.42.06.57.1.34.03-.2-.07.1-.04.29.02.19.07.28.11-.64-.07-1.28-.03-1.9-.18-.14,0,.04.02,0,.05-.2,0-.32-.1-.38-.07-.25-.03.13-.02,0-.06l-.19-.02c-.13,0,.04.03-.2.03Z"/>
      <path class="cls-1" d="M130.06,6.69s-.12-.07-.29-.03c-.34-.09-.78-.08-1.24-.15,1.02.02,2.06.18,3.15.27.02.11-.87-.1-1.05-.03.04-.03-.4-.09-.57-.05Z"/>
      <path class="cls-1" d="M129.92,6.14c-.11-.01-.05-.02,0-.02.02-.03-.11-.04-.09-.07.25.03.28.08.57.1-.11.05-.37-.04-.48-.01Z"/>
      <path class="cls-1" d="M131.34,7.41s-.19,0-.19.01c-.33-.05.45-.04-.18-.08,0-.07.34,0,.48.03.05.03-.37,0-.1.04Z"/>
      <path class="cls-1" d="M131.08,7.06c-.02-.06.35.03.58,0-.15-.04-.52-.07-.66-.11.32-.02.87.1,1.14.09-.21.05-.08.09-.39.11-.24-.05-.35-.09-.66-.1Z"/>
      <path class="cls-1" d="M133.54,9.43s.16.05,0,.06c-.14-.03-.3-.05-.28-.09.23,0,.18.02.48.03.17.03-.06.01-.19,0Z"/>
      <path class="cls-1" d="M135.81,9.82c.41,0,1.11.15,1.71.16.03.11-1.36-.12-1.71-.16Z"/>
      <path class="cls-1" d="M136.17,7.19c.08,0,.09.02.09.03.36.04.66.03,1.05.11.08.07-.52,0-.67-.04-.24-.02-.19.03-.2.08-.6-.08.13-.08-.27-.17Z"/>
      <path class="cls-1" d="M137.43,9.89c-.53-.09.39-.1.38,0-.21-.01-.13-.04-.28-.06-.27-.01.13.06-.1.05Z"/>
      <path class="cls-1" d="M138.01,9.9c.15-.06.72.03,1.15.02-.02.07.39.03.47.08-.34.03-.79-.08-1.15-.05,0-.08-.17.01-.47-.05Z"/>
      <path class="cls-1" d="M149.13,10.94c.58.03,1.04.07,1.81.17-.42-.02-1.09-.09-1.81-.17Z"/>
      <path class="cls-1" d="M150.77,10.93c-.08,0-.17,0-.19.01-.13-.02-.17-.05-.18-.09.39.02.3.07.57.1-.03.02-.19,0-.19-.02Z"/>
      <path class="cls-1" d="M1.09,4.16s.27-.04.38-.07c-.44,0,0-.18,0-.19-.09-.09-.41-.24.57-.23-.46.09.11.17.19.29.02.03-.19.04-.19.05-.02.14.68.29.67.35,0,.06-.19.04.1.11-.44,0-.5-.05-1.05-.02-.04-.04.36-.02.38-.05-.08-.04-.52-.08-.29-.13-.03-.03-.25.03-.38-.01.24-.07-.3-.04-.38-.09Z"/>
      <path class="cls-1" d="M50.15,4.74s.43.02.29-.04c.28.05.48.06.95.06-.01-.02-.17-.02-.29-.03.45-.02.94.08,1.24.06-.44.03-.93.12-1.34.1.09-.05.37-.06.58-.08-.02-.02-.19-.02-.19-.04-.28,0-.33.03-.57.03-.42-.06-.43-.03-.67-.07Z"/>
      <path class="cls-1" d="M54.92,4.66c.27-.06.6,0,1.05-.03.15.08.55.04.86.08-.38.08-1.14-.02-1.63.04-.32-.03-.05-.03-.09-.08h-.19Z"/>
      <path class="cls-1" d="M85.75,5.66c-.98-.05-2.05-.08-2.76-.16.06-.02.21-.02.38-.01-.15-.04-.3,0-.47-.06.59-.01,1.15.06,1.81.06.16.04,0,.02,0,.06.29.01,1.01.05,1.05.11Z"/>
      <path class="cls-1" d="M93.21,5.69c.34.06.2.02.67.04,0-.02-.12-.02-.19-.03.03-.06.29.03.38,0,.2.04-.07.04.09.09h.19c.11.02.08-.01.1-.03.54.04,0,.07,0,.11-.23-.07-.64-.01-.95-.05-.26-.04-.06-.07-.28-.13Z"/>
      <path class="cls-1" d="M94.89,3.56c.1-.03.6.03.86.04-.21.03-.28,0-.57,0,.12.05.45.04.47.06-.04.06-.25-.02-.48,0,.04.02.12.04.28.05-.12.02-.33,0-.58,0-.45-.1.54-.08,0-.15Z"/>
      <path class="cls-1" d="M94.24,6.17s.09-.02.1-.04c.69.09,1.54.02,1.9.16-.61-.04-1.56-.01-2-.12Z"/>
      <path class="cls-1" d="M94.83,5.87c.08-.01.13-.03.1-.07.73-.01,1.13.06,2,.12-.11,0-.63,0-.67-.03-.13,0-.18.02-.19.05-.31-.09-.62.03-1.24-.07Z"/>
      <path class="cls-1" d="M101.2,3.86s.41-.02,0-.05c.21-.01.44,0,.67.03-.02.02-.18,0-.29,0,.35.15,1.05.09,1.72.11.06.05-.2.02-.29.03.14.04.86.08.77,0,.24.02.3.05.38.01.31.11.87.2,1.52.19-.15.03-.6,0-.86,0,0-.03-.07-.05-.19-.06-.39.03-1.4-.05-1.72-.09.05.05-.4.07-.57-.03-.11.02-.36,0-.48.01-.15-.02-.08-.06-.38-.06,0-.04.1-.09-.28-.1Z"/>
      <path class="cls-1" d="M103.86,6.77c.66.01,1.11.07,1.81.1-.22.02.03.07,0,.11-.18,0-.24.02-.48,0-.13-.03-.05-.08-.18-.11-.6-.04-.74,0-1.14-.1Z"/>
      <path class="cls-1" d="M132.13,7.17c.27-.01.7.04.87-.03,1.12.08,1.72.28,2.48.23-.31.03.4.08.47.13.1,0,.07-.03.19-.01.28.04.66.08.56.15-.36-.04-.69-.07-.86-.05-.17-.04-.23-.09-.47-.13-.46-.06-.89-.01-1.14-.11-.14,0,.04.02,0,.05-.68-.12-1.3-.1-2.09-.22Z"/>
    </g>
  </g>
</svg>